<svg width="125" height="24" viewBox="0 0 125 24" fill="none" xmlns="http://www.w3.org/2000/svg">
<g opacity="0.2">
<path d="M5.51562 12.5391H2.47656V11.3125H5.51562C6.10417 11.3125 6.58073 11.2188 6.94531 11.0312C7.3099 10.8438 7.57552 10.5833 7.74219 10.25C7.91406 9.91667 8 9.53646 8 9.10938C8 8.71875 7.91406 8.35156 7.74219 8.00781C7.57552 7.66406 7.3099 7.38802 6.94531 7.17969C6.58073 6.96615 6.10417 6.85938 5.51562 6.85938H2.82812V17H1.32031V5.625H5.51562C6.375 5.625 7.10156 5.77344 7.69531 6.07031C8.28906 6.36719 8.73958 6.77865 9.04688 7.30469C9.35417 7.82552 9.50781 8.42188 9.50781 9.09375C9.50781 9.82292 9.35417 10.4453 9.04688 10.9609C8.73958 11.4766 8.28906 11.8698 7.69531 12.1406C7.10156 12.4062 6.375 12.5391 5.51562 12.5391ZM10.7031 12.8672V12.6875C10.7031 12.0781 10.7917 11.513 10.9688 10.9922C11.1458 10.4661 11.401 10.0104 11.7344 9.625C12.0677 9.23438 12.4714 8.93229 12.9453 8.71875C13.4193 8.5 13.9505 8.39062 14.5391 8.39062C15.1328 8.39062 15.6667 8.5 16.1406 8.71875C16.6198 8.93229 17.026 9.23438 17.3594 9.625C17.6979 10.0104 17.9557 10.4661 18.1328 10.9922C18.3099 11.513 18.3984 12.0781 18.3984 12.6875V12.8672C18.3984 13.4766 18.3099 14.0417 18.1328 14.5625C17.9557 15.0833 17.6979 15.5391 17.3594 15.9297C17.026 16.3151 16.6224 16.6172 16.1484 16.8359C15.6797 17.0495 15.1484 17.1562 14.5547 17.1562C13.9609 17.1562 13.4271 17.0495 12.9531 16.8359C12.4792 16.6172 12.0729 16.3151 11.7344 15.9297C11.401 15.5391 11.1458 15.0833 10.9688 14.5625C10.7917 14.0417 10.7031 13.4766 10.7031 12.8672ZM12.1484 12.6875V12.8672C12.1484 13.2891 12.1979 13.6875 12.2969 14.0625C12.3958 14.4323 12.5443 14.7604 12.7422 15.0469C12.9453 15.3333 13.1979 15.5599 13.5 15.7266C13.8021 15.888 14.1536 15.9688 14.5547 15.9688C14.9505 15.9688 15.2969 15.888 15.5938 15.7266C15.8958 15.5599 16.1458 15.3333 16.3438 15.0469C16.5417 14.7604 16.6901 14.4323 16.7891 14.0625C16.8932 13.6875 16.9453 13.2891 16.9453 12.8672V12.6875C16.9453 12.2708 16.8932 11.8776 16.7891 11.5078C16.6901 11.1328 16.5391 10.8021 16.3359 10.5156C16.138 10.224 15.888 9.99479 15.5859 9.82812C15.2891 9.66146 14.9401 9.57812 14.5391 9.57812C14.1432 9.57812 13.7943 9.66146 13.4922 9.82812C13.1953 9.99479 12.9453 10.224 12.7422 10.5156C12.5443 10.8021 12.3958 11.1328 12.2969 11.5078C12.1979 11.8776 12.1484 12.2708 12.1484 12.6875ZM22.3516 15.5L24.5234 8.54688H25.4766L25.2891 9.92969L23.0781 17H22.1484L22.3516 15.5ZM20.8906 8.54688L22.7422 15.5781L22.875 17H21.8984L19.4453 8.54688H20.8906ZM27.5547 15.5234L29.3203 8.54688H30.7578L28.3047 17H27.3359L27.5547 15.5234ZM25.6875 8.54688L27.8125 15.3828L28.0547 17H27.1328L24.8594 9.91406L24.6719 8.54688H25.6875ZM35.75 17.1562C35.1615 17.1562 34.6276 17.0573 34.1484 16.8594C33.6745 16.6562 33.2656 16.3724 32.9219 16.0078C32.5833 15.6432 32.3229 15.2109 32.1406 14.7109C31.9583 14.2109 31.8672 13.6641 31.8672 13.0703V12.7422C31.8672 12.0547 31.9688 11.4427 32.1719 10.9062C32.375 10.3646 32.651 9.90625 33 9.53125C33.349 9.15625 33.7448 8.8724 34.1875 8.67969C34.6302 8.48698 35.0885 8.39062 35.5625 8.39062C36.1667 8.39062 36.6875 8.49479 37.125 8.70312C37.5677 8.91146 37.9297 9.20312 38.2109 9.57812C38.4922 9.94792 38.7005 10.3854 38.8359 10.8906C38.9714 11.3906 39.0391 11.9375 39.0391 12.5312V13.1797H32.7266V12H37.5938V11.8906C37.5729 11.5156 37.4948 11.151 37.3594 10.7969C37.2292 10.4427 37.0208 10.151 36.7344 9.92188C36.4479 9.69271 36.0573 9.57812 35.5625 9.57812C35.2344 9.57812 34.9323 9.64844 34.6562 9.78906C34.3802 9.92448 34.1432 10.1276 33.9453 10.3984C33.7474 10.6693 33.5938 11 33.4844 11.3906C33.375 11.7812 33.3203 12.2318 33.3203 12.7422V13.0703C33.3203 13.4714 33.375 13.849 33.4844 14.2031C33.599 14.5521 33.763 14.8594 33.9766 15.125C34.1953 15.3906 34.4583 15.599 34.7656 15.75C35.0781 15.901 35.4323 15.9766 35.8281 15.9766C36.3385 15.9766 36.7708 15.8724 37.125 15.6641C37.4792 15.4557 37.7891 15.1771 38.0547 14.8281L38.9297 15.5234C38.7474 15.7995 38.5156 16.0625 38.2344 16.3125C37.9531 16.5625 37.6068 16.7656 37.1953 16.9219C36.7891 17.0781 36.3073 17.1562 35.75 17.1562ZM42.1719 9.875V17H40.7266V8.54688H42.1328L42.1719 9.875ZM44.8125 8.5L44.8047 9.84375C44.6849 9.81771 44.5703 9.80208 44.4609 9.79688C44.3568 9.78646 44.237 9.78125 44.1016 9.78125C43.7682 9.78125 43.474 9.83333 43.2188 9.9375C42.9635 10.0417 42.7474 10.1875 42.5703 10.375C42.3932 10.5625 42.2526 10.7865 42.1484 11.0469C42.0495 11.3021 41.9844 11.5833 41.9531 11.8906L41.5469 12.125C41.5469 11.6146 41.5964 11.1354 41.6953 10.6875C41.7995 10.2396 41.9583 9.84375 42.1719 9.5C42.3854 9.15104 42.6562 8.88021 42.9844 8.6875C43.3177 8.48958 43.7135 8.39062 44.1719 8.39062C44.276 8.39062 44.3958 8.40365 44.5312 8.42969C44.6667 8.45052 44.7604 8.47396 44.8125 8.5ZM49.5 17.1562C48.9115 17.1562 48.3776 17.0573 47.8984 16.8594C47.4245 16.6562 47.0156 16.3724 46.6719 16.0078C46.3333 15.6432 46.0729 15.2109 45.8906 14.7109C45.7083 14.2109 45.6172 13.6641 45.6172 13.0703V12.7422C45.6172 12.0547 45.7188 11.4427 45.9219 10.9062C46.125 10.3646 46.401 9.90625 46.75 9.53125C47.099 9.15625 47.4948 8.8724 47.9375 8.67969C48.3802 8.48698 48.8385 8.39062 49.3125 8.39062C49.9167 8.39062 50.4375 8.49479 50.875 8.70312C51.3177 8.91146 51.6797 9.20312 51.9609 9.57812C52.2422 9.94792 52.4505 10.3854 52.5859 10.8906C52.7214 11.3906 52.7891 11.9375 52.7891 12.5312V13.1797H46.4766V12H51.3438V11.8906C51.3229 11.5156 51.2448 11.151 51.1094 10.7969C50.9792 10.4427 50.7708 10.151 50.4844 9.92188C50.1979 9.69271 49.8073 9.57812 49.3125 9.57812C48.9844 9.57812 48.6823 9.64844 48.4062 9.78906C48.1302 9.92448 47.8932 10.1276 47.6953 10.3984C47.4974 10.6693 47.3438 11 47.2344 11.3906C47.125 11.7812 47.0703 12.2318 47.0703 12.7422V13.0703C47.0703 13.4714 47.125 13.849 47.2344 14.2031C47.349 14.5521 47.513 14.8594 47.7266 15.125C47.9453 15.3906 48.2083 15.599 48.5156 15.75C48.8281 15.901 49.1823 15.9766 49.5781 15.9766C50.0885 15.9766 50.5208 15.8724 50.875 15.6641C51.2292 15.4557 51.5391 15.1771 51.8047 14.8281L52.6797 15.5234C52.4974 15.7995 52.2656 16.0625 51.9844 16.3125C51.7031 16.5625 51.3568 16.7656 50.9453 16.9219C50.5391 17.0781 50.0573 17.1562 49.5 17.1562ZM59.8047 15.3594V5H61.2578V17H59.9297L59.8047 15.3594ZM54.1172 12.8672V12.7031C54.1172 12.0573 54.1953 11.4714 54.3516 10.9453C54.513 10.4141 54.7396 9.95833 55.0312 9.57812C55.3281 9.19792 55.6797 8.90625 56.0859 8.70312C56.4974 8.49479 56.9557 8.39062 57.4609 8.39062C57.9922 8.39062 58.4557 8.48438 58.8516 8.67188C59.2526 8.85417 59.5911 9.1224 59.8672 9.47656C60.1484 9.82552 60.3698 10.2474 60.5312 10.7422C60.6927 11.237 60.8047 11.7969 60.8672 12.4219V13.1406C60.8099 13.7604 60.6979 14.3177 60.5312 14.8125C60.3698 15.3073 60.1484 15.7292 59.8672 16.0781C59.5911 16.4271 59.2526 16.6953 58.8516 16.8828C58.4505 17.0651 57.9818 17.1562 57.4453 17.1562C56.9505 17.1562 56.4974 17.0495 56.0859 16.8359C55.6797 16.6224 55.3281 16.3229 55.0312 15.9375C54.7396 15.5521 54.513 15.099 54.3516 14.5781C54.1953 14.0521 54.1172 13.4818 54.1172 12.8672ZM55.5703 12.7031V12.8672C55.5703 13.2891 55.612 13.6849 55.6953 14.0547C55.7839 14.4245 55.9193 14.75 56.1016 15.0312C56.2839 15.3125 56.5156 15.5339 56.7969 15.6953C57.0781 15.8516 57.4141 15.9297 57.8047 15.9297C58.2839 15.9297 58.6771 15.8281 58.9844 15.625C59.2969 15.4219 59.5469 15.1536 59.7344 14.8203C59.9219 14.487 60.0677 14.125 60.1719 13.7344V11.8516C60.1094 11.5651 60.0182 11.2891 59.8984 11.0234C59.7839 10.7526 59.6328 10.513 59.4453 10.3047C59.263 10.0911 59.0365 9.92188 58.7656 9.79688C58.5 9.67188 58.1849 9.60938 57.8203 9.60938C57.4245 9.60938 57.0833 9.69271 56.7969 9.85938C56.5156 10.0208 56.2839 10.2448 56.1016 10.5312C55.9193 10.8125 55.7839 11.1406 55.6953 11.5156C55.612 11.8854 55.5703 12.2812 55.5703 12.7031ZM67.4688 5H68.9219V15.3594L68.7969 17H67.4688V5ZM74.6328 12.7031V12.8672C74.6328 13.4818 74.5599 14.0521 74.4141 14.5781C74.2682 15.099 74.0547 15.5521 73.7734 15.9375C73.4922 16.3229 73.1484 16.6224 72.7422 16.8359C72.3359 17.0495 71.8698 17.1562 71.3438 17.1562C70.8073 17.1562 70.3359 17.0651 69.9297 16.8828C69.5286 16.6953 69.1901 16.4271 68.9141 16.0781C68.638 15.7292 68.4167 15.3073 68.25 14.8125C68.0885 14.3177 67.9766 13.7604 67.9141 13.1406V12.4219C67.9766 11.7969 68.0885 11.237 68.25 10.7422C68.4167 10.2474 68.638 9.82552 68.9141 9.47656C69.1901 9.1224 69.5286 8.85417 69.9297 8.67188C70.3307 8.48438 70.7969 8.39062 71.3281 8.39062C71.8594 8.39062 72.3307 8.49479 72.7422 8.70312C73.1536 8.90625 73.4974 9.19792 73.7734 9.57812C74.0547 9.95833 74.2682 10.4141 74.4141 10.9453C74.5599 11.4714 74.6328 12.0573 74.6328 12.7031ZM73.1797 12.8672V12.7031C73.1797 12.2812 73.1406 11.8854 73.0625 11.5156C72.9844 11.1406 72.8594 10.8125 72.6875 10.5312C72.5156 10.2448 72.2891 10.0208 72.0078 9.85938C71.7266 9.69271 71.3802 9.60938 70.9688 9.60938C70.6042 9.60938 70.2865 9.67188 70.0156 9.79688C69.75 9.92188 69.5234 10.0911 69.3359 10.3047C69.1484 10.513 68.9948 10.7526 68.875 11.0234C68.7604 11.2891 68.6745 11.5651 68.6172 11.8516V13.7344C68.7005 14.099 68.8359 14.4505 69.0234 14.7891C69.2161 15.1224 69.4714 15.3958 69.7891 15.6094C70.112 15.8229 70.5104 15.9297 70.9844 15.9297C71.375 15.9297 71.7083 15.8516 71.9844 15.6953C72.2656 15.5339 72.4922 15.3125 72.6641 15.0312C72.8411 14.75 72.9714 14.4245 73.0547 14.0547C73.138 13.6849 73.1797 13.2891 73.1797 12.8672ZM78.7422 16.125L81.0938 8.54688H82.6406L79.25 18.3047C79.1719 18.513 79.0677 18.737 78.9375 18.9766C78.8125 19.2214 78.651 19.4531 78.4531 19.6719C78.2552 19.8906 78.0156 20.0677 77.7344 20.2031C77.4583 20.3438 77.1276 20.4141 76.7422 20.4141C76.6276 20.4141 76.4818 20.3984 76.3047 20.3672C76.1276 20.3359 76.0026 20.3099 75.9297 20.2891L75.9219 19.1172C75.9635 19.1224 76.0286 19.1276 76.1172 19.1328C76.2109 19.1432 76.276 19.1484 76.3125 19.1484C76.6406 19.1484 76.9193 19.1042 77.1484 19.0156C77.3776 18.9323 77.5703 18.7891 77.7266 18.5859C77.888 18.388 78.026 18.1146 78.1406 17.7656L78.7422 16.125ZM77.0156 8.54688L79.2109 15.1094L79.5859 16.6328L78.5469 17.1641L75.4375 8.54688H77.0156Z" fill="white"/>
<g clip-path="url(#clip0_80_42)">
<path d="M93.5651 20C92.1481 20 91 18.8279 91 17.3813C91 15.9347 92.1481 14.7626 93.5651 14.7626C94.982 14.7626 96.1301 15.9347 96.1301 17.3813C96.1301 18.8279 94.9813 20 93.5651 20Z" fill="white"/>
<path d="M97.0762 19.9805V4H102.206V14.7431C102.206 17.6356 99.9094 19.9805 97.0762 19.9805Z" fill="white"/>
<path d="M123.501 5.53066C123.415 5.44242 123.326 5.35765 123.233 5.27636C122.906 4.98593 122.543 4.73858 122.15 4.54056L119.881 6.21435L117.359 8.07573C117.144 7.09397 116.657 6.21643 115.985 5.53066C115.898 5.44242 115.809 5.35696 115.716 5.27566C115.388 4.98524 115.024 4.73788 114.632 4.53986L112.365 6.21157L109.736 8.15147C109.251 5.78079 107.193 4 104.727 4V14.7556C104.727 17.6411 107.019 19.9799 109.844 19.9799V9.60639L112.365 7.7464V14.7556C112.365 17.6404 114.657 19.9805 117.483 19.9805V9.51954L119.882 7.74987V14.7556C119.882 17.6404 122.174 19.9805 125 19.9805V9.22425C125 7.78183 124.427 6.47559 123.501 5.53066Z" fill="white"/>
</g>
</g>
<defs>
<clipPath id="clip0_80_42">
<rect width="34" height="16" fill="white" transform="translate(91 4)"/>
</clipPath>
</defs>
</svg>
