<svg width="150" height="19" viewBox="0 0 150 19" fill="none" xmlns="http://www.w3.org/2000/svg">
<path d="M149.202 1.3374V18.7366H146.348V6.82002L141.041 18.7366H139.063L133.731 6.82002V18.7366H130.877V1.3374H133.956L140.065 14.9814L146.148 1.3374H149.202Z" fill="white"/>
<path d="M120.602 3.64073V8.74783H126.611V11.0761H120.602V16.4085H127.362V18.7367H117.748V1.3125H127.362V3.64073H120.602Z" fill="white"/>
<path d="M110.968 18.7366L106.962 11.7769H104.784V18.7366H101.93V1.3374H107.939C109.274 1.3374 110.401 1.57106 111.318 2.03838C112.253 2.50569 112.946 3.13156 113.396 3.91598C113.864 4.70041 114.097 5.57662 114.097 6.54464C114.097 7.67954 113.764 8.71432 113.096 9.64895C112.445 10.5669 111.435 11.1928 110.067 11.5266L114.373 18.7366H110.968ZM104.784 9.49874H107.939C109.007 9.49874 109.808 9.2317 110.342 8.69763C110.893 8.16355 111.168 7.44589 111.168 6.54464C111.168 5.64338 110.901 4.94241 110.367 4.44171C109.833 3.92433 109.024 3.66564 107.939 3.66564H104.784V9.49874Z" fill="white"/>
<path d="M90.2348 18.912C88.6158 18.912 87.1221 18.5365 85.7535 17.7855C84.4017 17.0177 83.3252 15.9579 82.524 14.606C81.7396 13.2375 81.3474 11.702 81.3474 9.99965C81.3474 8.29729 81.7396 6.77016 82.524 5.41829C83.3252 4.06641 84.4017 3.01495 85.7535 2.2639C87.1221 1.49617 88.6158 1.1123 90.2348 1.1123C91.8704 1.1123 93.3641 1.49617 94.716 2.2639C96.0845 3.01495 97.161 4.06641 97.9455 5.41829C98.7299 6.77016 99.1221 8.29729 99.1221 9.99965C99.1221 11.702 98.7299 13.2375 97.9455 14.606C97.161 15.9579 96.0845 17.0177 94.716 17.7855C93.3641 18.5365 91.8704 18.912 90.2348 18.912ZM90.2348 16.4336C91.3864 16.4336 92.4128 16.1749 93.314 15.6575C94.2153 15.1234 94.9163 14.3724 95.417 13.4044C95.9343 12.4197 96.193 11.2848 96.193 9.99965C96.193 8.71453 95.9343 7.58797 95.417 6.61995C94.9163 5.65194 94.2153 4.90925 93.314 4.39186C92.4128 3.87447 91.3864 3.61578 90.2348 3.61578C89.0832 3.61578 88.0567 3.87447 87.1555 4.39186C86.2542 4.90925 85.5449 5.65194 85.0275 6.61995C84.5268 7.58797 84.2765 8.71453 84.2765 9.99965C84.2765 11.2848 84.5268 12.4197 85.0275 13.4044C85.5449 14.3724 86.2542 15.1234 87.1555 15.6575C88.0567 16.1749 89.0832 16.4336 90.2348 16.4336Z" fill="white"/>
<path d="M74.0288 16.4334H79.9119V18.7366H71.1748V1.3374H74.0288V16.4334Z" fill="white"/>
<path d="M59.4802 18.9121C57.8279 18.9121 56.3091 18.5282 54.9239 17.7605C53.5553 16.9928 52.4621 15.9246 51.6443 14.5561C50.8432 13.1708 50.4426 11.6186 50.4426 9.89959C50.4426 8.18054 50.8432 6.63673 51.6443 5.26816C52.4621 3.89959 53.5553 2.83144 54.9239 2.06371C56.3091 1.29598 57.8279 0.912109 59.4802 0.912109C61.1325 0.912109 62.6429 1.29598 64.0115 2.06371C65.3967 2.83144 66.4816 3.89959 67.266 5.26816C68.0671 6.63673 68.4677 8.18054 68.4677 9.89959C68.4677 11.6186 68.0671 13.1708 67.266 14.5561C66.4649 15.9246 65.38 16.9928 64.0115 17.7605C62.6429 18.5282 61.1325 18.9121 59.4802 18.9121ZM59.4802 15.0067C60.8821 15.0067 62.0003 14.5394 62.8348 13.6047C63.686 12.6701 64.1116 11.4351 64.1116 9.89959C64.1116 8.34744 63.686 7.11239 62.8348 6.19444C62.0003 5.25981 60.8821 4.7925 59.4802 4.7925C58.0615 4.7925 56.9266 5.25147 56.0755 6.16941C55.241 7.08735 54.8237 8.33075 54.8237 9.89959C54.8237 11.4517 55.241 12.6951 56.0755 13.6298C56.9266 14.5477 58.0615 15.0067 59.4802 15.0067Z" fill="white"/>
<path d="M43.7655 6.71991C43.4484 6.13577 42.9894 5.69348 42.3886 5.39307C41.8044 5.07596 41.1118 4.91741 40.3107 4.91741C38.9254 4.91741 37.8156 5.37638 36.9811 6.29432C36.1466 7.19557 35.7293 8.40559 35.7293 9.92436C35.7293 11.5433 36.1633 12.8117 37.0311 13.7296C37.9157 14.6309 39.1257 15.0815 40.6612 15.0815C41.7126 15.0815 42.5972 14.8145 43.3149 14.2804C44.0492 13.7463 44.5833 12.9786 44.9171 11.9772H39.4846V8.82283H48.7975V12.8034C48.4804 13.8715 47.938 14.8646 47.1702 15.7825C46.4192 16.7004 45.4595 17.4431 44.2912 18.0106C43.1229 18.578 41.8044 18.8618 40.3357 18.8618C38.6 18.8618 37.0478 18.4863 35.6793 17.7352C34.3274 16.9675 33.2676 15.9077 32.4999 14.5558C31.7488 13.2039 31.3733 11.6601 31.3733 9.92436C31.3733 8.18862 31.7488 6.64481 32.4999 5.29293C33.2676 3.92436 34.3274 2.86456 35.6793 2.11351C37.0312 1.34578 38.575 0.961914 40.3107 0.961914C42.4136 0.961914 44.1827 1.47095 45.6181 2.48903C47.0701 3.50712 48.0298 4.91741 48.4971 6.71991H43.7655Z" fill="white"/>
<path d="M20.7302 18.9121C19.0779 18.9121 17.5591 18.5282 16.1739 17.7605C14.8053 16.9928 13.7121 15.9246 12.8943 14.5561C12.0932 13.1708 11.6926 11.6186 11.6926 9.89959C11.6926 8.18054 12.0932 6.63673 12.8943 5.26816C13.7121 3.89959 14.8053 2.83144 16.1739 2.06371C17.5591 1.29598 19.0779 0.912109 20.7302 0.912109C22.3825 0.912109 23.8929 1.29598 25.2615 2.06371C26.6467 2.83144 27.7316 3.89959 28.516 5.26816C29.3171 6.63673 29.7177 8.18054 29.7177 9.89959C29.7177 11.6186 29.3171 13.1708 28.516 14.5561C27.7149 15.9246 26.63 16.9928 25.2615 17.7605C23.8929 18.5282 22.3825 18.9121 20.7302 18.9121ZM20.7302 15.0067C22.1321 15.0067 23.2503 14.5394 24.0848 13.6047C24.936 12.6701 25.3616 11.4351 25.3616 9.89959C25.3616 8.34744 24.936 7.11239 24.0848 6.19444C23.2503 5.25981 22.1321 4.7925 20.7302 4.7925C19.3115 4.7925 18.1766 5.25147 17.3255 6.16941C16.491 7.08735 16.0737 8.33075 16.0737 9.89959C16.0737 11.4517 16.491 12.6951 17.3255 13.6298C18.1766 14.5477 19.3115 15.0067 20.7302 15.0067Z" fill="white"/>
<path d="M4.76898 15.4319H10.3768V18.7365H0.488037V1.16211H4.76898V15.4319Z" fill="white"/>
</svg>
