<svg width="24" height="24" viewBox="0 0 24 24" fill="none" xmlns="http://www.w3.org/2000/svg">
<g clip-path="url(#clip0_26_798)">
<path d="M0.0060652 6.15011C8.02426 6.15011 16 6.15011 23.9939 6.15011C24 6.24716 24.0061 6.33207 24.0061 6.41698C24.0061 11.2206 24.0061 16.0303 24.0061 20.834C24.0061 22.4473 22.9932 23.6785 21.4405 23.9575C21.2707 23.9879 21.0948 23.9939 20.9189 23.9939C14.981 23.9939 9.04321 24 3.09932 23.9939C1.54663 23.9939 0.327521 22.9629 0.0485216 21.4405C0.0121304 21.2343 0.0060652 21.022 0.0060652 20.8158C0.0060652 16.0182 0.0060652 11.2206 0.0060652 6.42305C0.0060652 6.33813 0.0060652 6.25322 0.0060652 6.15011ZM14.2047 9.83776C14.2047 9.3768 13.956 9.05534 13.586 8.9583C13.119 8.83093 12.7066 9.09174 12.5428 9.61941C12.0455 11.2328 11.5542 12.8461 11.0629 14.4594C10.6566 15.7817 10.2502 17.1039 9.84988 18.4261C9.69825 18.9295 9.97119 19.4086 10.4625 19.5118C10.9234 19.6149 11.3116 19.3419 11.4814 18.8021C12.3609 15.9272 13.2403 13.0462 14.1259 10.1653C14.1562 10.044 14.1865 9.90447 14.2047 9.83776ZM17.7165 14.229C16.9704 14.975 16.2426 15.6907 15.5269 16.4124C15.1691 16.7763 15.163 17.2555 15.5027 17.6012C15.8302 17.9409 16.3457 17.953 16.6975 17.6012C17.6255 16.6793 18.5534 15.7574 19.4754 14.8294C19.8211 14.4776 19.8271 13.9803 19.4814 13.6346C18.5595 12.7066 17.6437 11.7726 16.6975 10.8688C16.5398 10.7172 16.2669 10.6384 16.0425 10.6262C15.7028 10.608 15.4541 10.8203 15.3207 11.1418C15.1812 11.4875 15.2722 11.7908 15.5269 12.0516C16.2487 12.7672 16.9704 13.489 17.7165 14.229ZM6.27748 14.2108C6.36846 14.138 6.44124 14.0834 6.50189 14.0227C7.15694 13.3677 7.81198 12.7187 8.46095 12.0637C8.67324 11.8514 8.78848 11.6088 8.73389 11.3116C8.67324 10.9841 8.48522 10.7536 8.16982 10.6505C7.83624 10.5474 7.53298 10.6262 7.28431 10.881C6.38666 11.7786 5.48294 12.6823 4.58529 13.58C4.17286 13.9924 4.17892 14.4716 4.59742 14.8901C5.39803 15.6907 6.19864 16.4913 6.99924 17.298C7.10842 17.4071 7.21759 17.5224 7.33283 17.6315C7.5815 17.856 7.86656 17.9227 8.18196 17.8135C8.49735 17.7043 8.68537 17.4738 8.73995 17.1463C8.79454 16.837 8.66111 16.5883 8.44882 16.376C7.73313 15.6725 7.0235 14.9628 6.27748 14.2108Z" fill="#FF008B"/>
<path d="M0 4.44579C0.0485216 3.61486 -0.109174 2.78393 0.200152 1.98332C0.642911 0.824867 1.72858 0.0424564 2.96588 0.0060652C3.0326 0 3.09932 0 3.1721 0C9.05534 0 14.9447 0 20.8279 0C22.2714 0 23.4117 0.794541 23.8423 2.10462C23.9272 2.35936 23.9757 2.6323 23.9879 2.89917C24.0121 3.40864 23.9939 3.92419 23.9939 4.45186C15.9939 4.44579 8.01213 4.44579 0 4.44579Z" fill="#FF008B"/>
</g>
<defs>
<clipPath id="clip0_26_798">
<rect width="24.0061" height="24" fill="white"/>
</clipPath>
</defs>
</svg>
