<svg width="24" height="24" viewBox="0 0 24 24" fill="none" xmlns="http://www.w3.org/2000/svg">
<g clip-path="url(#clip0_27_812)">
<path d="M23.9786 17.151C22.5702 17.151 21.2046 17.151 19.8391 17.151C18.2163 17.151 17.1296 18.2449 17.1224 19.8749C17.1224 21.2404 17.1224 22.5987 17.1224 23.9929C17.0223 24 16.9366 24.0071 16.8508 24.0071C15.5496 24.0071 14.2484 24.0071 12.9473 24.0071C11.3744 24.0071 10.2735 22.899 10.2735 21.3262C10.2735 17.4013 10.2735 13.4763 10.2735 9.55138C10.2735 7.9857 11.3816 6.87757 12.9544 6.87757C15.7283 6.87757 18.5022 6.87757 21.2761 6.87757C22.8776 6.87757 23.9714 7.97855 23.9714 9.58713C23.9714 12.0107 23.9714 14.4415 23.9714 16.8651C23.9786 16.9508 23.9786 17.0366 23.9786 17.151ZM17.151 10.3021C16.3146 10.3021 15.4781 10.3021 14.6345 10.3021C14.084 10.3021 13.7051 10.6524 13.6979 11.1528C13.6908 11.6461 14.0769 12.0179 14.6202 12.0179C16.286 12.0179 17.9517 12.0179 19.6247 12.0179C20.168 12.0179 20.5541 11.6533 20.5469 11.1528C20.5469 10.6595 20.1537 10.3021 19.6104 10.3021C18.7954 10.2949 17.9732 10.3021 17.151 10.3021ZM16.2645 15.4352C16.815 15.4352 17.3727 15.4352 17.9231 15.4352C18.4593 15.4352 18.8454 15.0634 18.8382 14.563C18.8311 14.0769 18.445 13.7194 17.9231 13.7194C16.8293 13.7194 15.7283 13.7194 14.6345 13.7194C14.0912 13.7194 13.7051 14.0769 13.7051 14.5773C13.7051 15.0706 14.0912 15.4281 14.6345 15.4352C15.1778 15.4424 15.7212 15.4352 16.2645 15.4352Z" fill="#FF008B"/>
<path d="M0 18.8525C0 17.7444 0 16.6434 0 15.5353C0 14.4486 0.722073 13.7265 1.80876 13.7265C3.46023 13.7265 5.10456 13.7265 6.75603 13.7265C7.82842 13.7265 8.55764 14.4486 8.55764 15.5139C8.55764 17.7444 8.55764 19.9678 8.55764 22.1984C8.55764 23.2708 7.82842 23.9929 6.76318 23.9929C5.10456 23.9929 3.44593 23.9929 1.78731 23.9929C0.722073 23.9929 0 23.2636 0 22.1912C0 21.0831 0 19.9678 0 18.8525ZM5.1403 18.8883C5.1403 18.6023 5.14745 18.3164 5.1403 18.0304C5.13315 17.5299 4.76139 17.151 4.28954 17.151C3.81055 17.151 3.43878 17.5228 3.43164 18.0232C3.42449 18.588 3.42449 19.1457 3.43164 19.7105C3.43878 20.2038 3.81769 20.5827 4.29669 20.5755C4.76139 20.5684 5.12601 20.2038 5.1403 19.7176C5.14745 19.4388 5.1403 19.16 5.1403 18.8883Z" fill="#FF008B"/>
<path d="M7.59964 11.8892C7.31367 11.9392 7.0849 12.0107 6.86327 12.0107C5.1403 12.0179 3.41734 12.025 1.70152 12.0107C0.764969 12.0036 0.0142985 11.2601 0.00714924 10.3235C0 7.44951 0 4.58266 0.00714924 1.70867C0.00714924 0.786416 0.757819 0.0357462 1.67292 0.028597C3.41019 0.0142985 5.1546 0.0214477 6.89187 0.028597C7.0992 0.028597 7.30652 0.0929401 7.58534 0.142985C7.4924 0.257373 7.43521 0.328865 7.37802 0.393208C6.23414 1.65147 5.08311 2.91689 3.93923 4.17516C2.90259 5.31189 2.90974 6.72029 3.93923 7.84987C5.08311 9.10098 6.21984 10.3592 7.35657 11.6104C7.42091 11.6819 7.47811 11.7534 7.59964 11.8892Z" fill="#FF008B"/>
<path d="M19.689 0.0357462C19.689 1.74441 19.689 3.43878 19.689 5.14745C19.5961 5.1546 19.5103 5.16175 19.4245 5.16175C17.6157 5.16175 15.807 5.1689 13.9982 5.1546C13.6979 5.1546 13.3762 5.07596 13.0974 4.96157C12.5112 4.72565 11.9392 4.45398 11.3673 4.18945C10.6738 3.87489 10.2878 3.34584 10.2878 2.58088C10.2949 1.83021 10.681 1.30831 11.3601 1.00089C11.9321 0.743521 12.504 0.47185 13.0903 0.228776C13.3405 0.128686 13.6193 0.0357462 13.8838 0.0357462C15.7712 0.0214477 17.6658 0.028597 19.5532 0.028597C19.5889 0.028597 19.6247 0.028597 19.689 0.0357462Z" fill="#FF008B"/>
<path d="M8.55049 1.73012C8.55049 4.59696 8.55049 7.45666 8.55049 10.3735C8.35031 10.1591 8.18588 9.97319 8.02145 9.79446C7.0706 8.75067 6.1269 7.71403 5.17605 6.67024C4.79714 6.24844 4.78284 5.81233 5.14745 5.40483C6.23414 4.20375 7.32797 3.00268 8.4218 1.80161C8.4504 1.76586 8.47185 1.73012 8.4933 1.68722C8.51475 1.70152 8.52904 1.71582 8.55049 1.73012Z" fill="#FF008B"/>
<path d="M21.4191 5.1546C21.4191 3.43878 21.4191 1.74441 21.4191 0C21.8624 0.028597 22.3056 0.00714924 22.7203 0.100089C23.4281 0.250223 23.95 0.922252 23.9714 1.65147C23.9928 2.28061 23.9928 2.91689 23.9714 3.54602C23.9428 4.38248 23.2708 5.08311 22.4272 5.1546C22.0983 5.17605 21.7694 5.1546 21.4191 5.1546Z" fill="#FF008B"/>
<path d="M23.3709 18.8597C21.8552 20.3682 20.3539 21.8695 18.8597 23.3709C18.8597 23.3709 18.8454 23.3208 18.8454 23.2779C18.8454 22.0983 18.8382 20.9258 18.8454 19.7462C18.8454 19.2529 19.1886 18.8668 19.6604 18.8668C20.8972 18.8525 22.134 18.8597 23.3709 18.8597Z" fill="#FF008B"/>
</g>
<defs>
<clipPath id="clip0_27_812">
<rect width="23.9857" height="24" fill="white"/>
</clipPath>
</defs>
</svg>
