<svg width="25" height="24" viewBox="0 0 25 24" fill="none" xmlns="http://www.w3.org/2000/svg">
<g clip-path="url(#clip0_27_803)">
<path d="M20.5312 24C20.4247 23.9749 20.3246 23.9436 20.2181 23.9186C19.7235 23.8059 19.2601 23.5993 18.8969 23.2486C18.3585 22.7289 17.8513 22.1779 17.3504 21.6582C18.7717 20.2369 20.2181 18.7905 21.6833 17.3253C21.6895 17.3316 21.7396 17.3692 21.7835 17.4067C22.2155 17.8388 22.6538 18.2583 23.0733 18.6966C23.9436 19.6045 24.2254 20.6752 23.8309 21.8649C23.4427 23.0357 22.6037 23.7308 21.3827 23.9499C21.3452 23.9562 21.3139 23.9749 21.2763 23.9875C21.0321 24 20.7816 24 20.5312 24Z" fill="#FF008B"/>
<path d="M18.0266 13.7125C18.8907 14.5766 19.7548 15.4406 20.6063 16.2922C19.1787 17.7198 17.7323 19.1662 16.311 20.5875C15.4594 19.736 14.5891 18.8656 13.7313 18.0078C15.1464 16.5927 16.5865 15.1464 18.0266 13.7125Z" fill="#FF008B"/>
<path d="M0 18.8406C0.118967 18.3585 0.432038 18.0141 0.770154 17.6697C6.48056 11.9656 12.1847 6.26141 17.8889 0.55726C18.3898 0.056347 18.9596 -0.137757 19.6358 0.100177C19.8549 0.175314 20.0741 0.319326 20.2432 0.482123C21.3452 1.56535 22.4409 2.6611 23.5304 3.75684C24.1691 4.40177 24.1691 5.3535 23.5429 6.01095C23.2236 6.34281 22.8917 6.66214 22.5536 7.00026C22.4847 6.93764 22.4221 6.88129 22.3658 6.82494C21.6457 6.10487 20.9319 5.38481 20.2056 4.67727C20.0866 4.56457 19.9301 4.45812 19.7798 4.41429C19.473 4.32663 19.1725 4.47691 19.0222 4.73988C18.8719 5.00913 18.9095 5.34724 19.1349 5.58518C19.5168 5.97965 19.905 6.36159 20.2932 6.74354C20.7065 7.15679 21.126 7.56378 21.5267 7.95825C21.1573 8.32768 20.8067 8.67831 20.4185 9.06652C20.312 8.95382 20.1805 8.80354 20.0365 8.65953C19.7235 8.3402 19.4104 8.02713 19.0911 7.71406C18.7905 7.42603 18.3647 7.42603 18.083 7.7078C17.8137 7.9833 17.8137 8.40907 18.0955 8.6971C18.54 9.15418 19.0034 9.59874 19.4354 10.0308C19.0723 10.3939 18.7216 10.7446 18.3522 11.1203C18.3209 11.0952 18.2645 11.0389 18.2019 10.9825C17.4631 10.2437 16.7242 9.49856 15.9791 8.76597C15.7287 8.51552 15.4344 8.47169 15.1464 8.6157C14.8834 8.74719 14.7143 9.02269 14.7769 9.31072C14.8145 9.47977 14.9084 9.66762 15.0337 9.79285C15.7475 10.5254 16.4738 11.2455 17.2001 11.9656C17.2627 12.0282 17.3379 12.0657 17.3942 12.1096C17.006 12.4978 16.6554 12.8484 16.2797 13.2241C15.9541 12.8985 15.6222 12.5604 15.2904 12.2285C15.1777 12.1158 15.0712 12.0031 14.9585 11.8967C14.6454 11.5961 14.2134 11.5836 13.9316 11.8591C13.6499 12.1409 13.6561 12.5729 13.963 12.886C14.3512 13.2805 14.7456 13.6687 15.1401 14.0631C15.1902 14.1132 15.2528 14.1508 15.2779 14.1696C14.9147 14.5327 14.5703 14.8771 14.2009 15.2465C14.1884 15.234 14.1258 15.1777 14.0694 15.1213C13.3368 14.395 12.6105 13.6624 11.8842 12.9361C11.6525 12.7044 11.3833 12.6167 11.0764 12.7294C10.6068 12.9048 10.4816 13.4933 10.8322 13.869C11.1203 14.1758 11.4271 14.4701 11.7214 14.7644C12.2223 15.2653 12.7295 15.7662 13.2053 16.2484C12.8422 16.6115 12.4853 16.9684 12.1158 17.3379C11.7026 16.9183 11.2518 16.4675 10.8009 16.0167C10.5881 15.8038 10.3376 15.7349 10.0496 15.8414C9.77407 15.9416 9.62379 16.1482 9.59249 16.4425C9.56744 16.6867 9.66762 16.8808 9.84294 17.0498C10.2812 17.4819 10.7195 17.9202 11.1328 18.3272C10.7696 18.6903 10.4127 19.0472 10.037 19.4229C9.56744 18.9533 9.06653 18.4399 8.55935 17.9327C8.27759 17.6509 7.99583 17.3692 7.71406 17.0874C7.38221 16.7618 6.96269 16.7493 6.67467 17.0436C6.38664 17.3316 6.41169 17.7636 6.73102 18.083C7.45108 18.8093 8.17741 19.5293 8.90373 20.2557C8.96635 20.3183 9.03522 20.3684 9.08531 20.4059C8.70963 20.7816 8.35899 21.1323 7.99583 21.4954C7.97078 21.4766 7.92069 21.4328 7.8706 21.389C7.46987 20.9945 7.0754 20.5938 6.67467 20.1993C6.35534 19.8862 5.91704 19.8737 5.63527 20.168C5.35977 20.456 5.37855 20.8818 5.68536 21.1949C6.12366 21.6394 6.56822 22.0777 7.03157 22.5348C6.41795 23.0545 6.0047 23.7871 5.16567 23.9937C4.99661 23.9937 4.82129 23.9937 4.65223 23.9937C4.18263 23.8873 3.83825 23.5993 3.50639 23.2611C2.59849 22.3345 1.67806 21.4203 0.757631 20.5124C0.406992 20.1868 0.106444 19.8362 0 19.3603C0 19.185 0 19.0159 0 18.8406Z" fill="#FF008B"/>
<path d="M0 0.144007C0.106444 0.0187786 0.225411 -0.0062671 0.394469 0.0313014C1.7532 0.381941 3.11192 0.73258 4.47691 1.06443C5.61023 1.3462 6.48056 2.00991 7.21315 2.84268C5.7605 4.30159 4.31411 5.74797 2.8552 7.20688C1.96608 6.46177 1.3149 5.52882 1.02687 4.35168C0.726324 3.09313 0.400731 1.84085 0.0813984 0.588567C0.0626141 0.51343 0.0250457 0.444555 0 0.375679C0 0.300542 0 0.219144 0 0.144007Z" fill="#FF008B"/>
<path d="M3.95721 8.20871C5.37229 6.79363 6.81868 5.34724 8.27759 3.88833C8.94756 4.58961 9.63006 5.30341 10.2875 5.99843C8.89121 7.39472 7.43856 8.84111 5.97965 10.3063C5.31594 9.61753 4.63345 8.90999 3.95721 8.20871Z" fill="#FF008B"/>
</g>
<defs>
<clipPath id="clip0_27_803">
<rect width="24.0125" height="24" fill="white"/>
</clipPath>
</defs>
</svg>
