<svg width="90" height="32" viewBox="0 0 90 32" fill="none" xmlns="http://www.w3.org/2000/svg">
<g clip-path="url(#clip0_2445_9)">
<path d="M71.4606 16.9691L77.4949 10.6422H73.2891L68.7177 15.5793L68.4983 5.92449L65.4629 5.99763L65.3166 15.5793C65.3166 15.5793 64.2926 10.3496 58.4046 10.4228C56.32 10.4593 52.6629 11.9222 52.1509 17.9565C52.1509 17.9565 51.0537 16.8228 49.92 16.0548C49.1154 15.5428 48.3109 15.1405 47.6891 14.7748C46.9577 14.3359 48.0914 12.2148 50.5783 14.7016L52.736 12.4708C52.736 12.4708 49.8469 9.54506 47.1772 10.4228C44.5074 11.3371 42.8251 14.8113 45.6046 17.1153C46.7017 18.0296 48.3109 18.8342 49.0789 19.5291C49.9566 20.2971 50.0297 21.2113 48.6034 21.2479C47.1406 21.2845 45.8606 19.4193 45.8606 19.4193L44.7634 20.5896L42.6057 18.4319C42.6057 18.4319 37.9611 23.2593 33.8286 19.8582C29.44 16.2376 32.2926 11.0811 34.2674 10.1668C36.2423 9.25249 39.3143 8.99649 42.5326 11.7393L44.9463 9.21592C44.9463 9.21592 42.3131 6.32677 38.4731 5.85134C35.9497 5.5222 32.0366 6.2902 29.952 9.72791C29.952 9.72791 26.2583 -0.768085 17.1154 1.46277C9.87429 3.25477 9.14286 10.2765 10.752 14.0068C12.3246 17.7005 16.0183 17.7005 16.0183 17.7005C16.0183 17.7005 16.9691 14.2993 12.8 10.5325C12.8 10.5325 13.824 10.2033 14.9211 10.7153C17.1154 11.7393 20.0046 15.1405 18.3223 20.0045C17.7006 21.7599 16.2011 23.0765 14.7749 24.9416C13.5314 26.5873 11.9223 28.0868 10.752 30.5736C10.752 30.5736 11.9223 30.8662 13.3851 30.8662C13.3851 30.8662 14.2629 28.6719 16.2011 26.8068C20.4069 22.6742 24.2469 15.6525 17.0789 10.2399C17.0789 10.2399 31.5246 12.9462 18.3589 30.9028C18.3589 30.9028 24.9783 29.5862 29.696 20.5165C29.696 20.5165 35.072 28.3793 43.8857 22.1256C43.8857 22.1256 45.2023 24.3199 48.5303 24.2468C51.3829 24.2102 52.3703 22.4913 52.8091 21.0285C52.8091 21.0285 54.9303 24.7588 59.0629 24.5028C60.7817 24.3931 62.5372 23.9176 64.8046 21.6502L61.7691 19.6753C61.7691 19.6753 57.7097 24.0273 55.2229 18.5782L65.1703 18.5051V24.0273L68.7909 23.8811V18.2856L73.8743 23.8811L77.9337 23.9542L71.4606 16.9691ZM55.5154 15.5062C56.2469 13.9336 57.1977 13.4582 58.624 13.4582C61.2572 13.4582 61.7326 15.5062 61.7326 15.5062H55.5154Z" fill="white"/>
<path d="M82.7977 10.24C79.104 10.24 76.1417 13.4217 76.1417 17.3348C76.1417 21.248 79.1406 24.4297 82.7977 24.4297C86.4914 24.4297 89.4537 21.248 89.4537 17.3348C89.4537 13.4217 86.4914 10.24 82.7977 10.24ZM82.6514 21.1383C80.7863 21.1383 79.2869 19.456 79.2869 17.408C79.2869 15.36 80.7863 13.6777 82.6514 13.6777C84.5166 13.6777 86.016 15.36 86.016 17.408C86.016 19.456 84.5166 21.1383 82.6514 21.1383Z" fill="white"/>
<path d="M6.32686 28.3795C6.58286 28.6355 8.30171 25.1612 10.8251 23.3692C14.1531 20.992 15.4697 19.1635 15.4697 19.1635C15.4697 19.1635 6.4 20.6263 5.96114 12.2515C5.66857 6.4366 11.6297 1.0606 16.7497 0.0366019C16.7497 0.0366019 6.58286 -1.13368 1.49943 9.54517C-1.46286 15.7623 -0.146287 22.272 6.32686 28.3795Z" fill="white"/>
<path d="M34.2674 27.136C34.2674 27.2092 34.2674 27.2457 34.2674 27.2823C34.2674 27.3189 34.2674 27.3555 34.2309 27.392C34.2309 27.4286 34.1943 27.4286 34.1943 27.4652L34.1577 27.5017H33.1337V30.7932C33.1337 30.8297 33.1337 30.8297 33.0971 30.8663C33.0971 30.8663 33.0606 30.9029 33.024 30.9029C32.9874 30.9029 32.9509 30.9395 32.9143 30.9395C32.8777 30.9395 32.8046 30.9395 32.7314 30.9395C32.6583 30.9395 32.5851 30.9395 32.5486 30.9395C32.512 30.9395 32.4389 30.9395 32.4389 30.9029C32.4023 30.9029 32.4023 30.8663 32.3657 30.8663C32.3657 30.8663 32.3291 30.8297 32.3291 30.7932V27.5017H31.3051C31.2686 27.5017 31.2686 27.5017 31.2686 27.4652C31.2686 27.4652 31.232 27.4286 31.232 27.392C31.232 27.3555 31.1954 27.3189 31.1954 27.2823C31.1954 27.2457 31.1954 27.1726 31.1954 27.136C31.1954 27.0629 31.1954 27.0263 31.1954 26.9897C31.1954 26.9532 31.1954 26.9166 31.232 26.88C31.232 26.8435 31.2686 26.8435 31.2686 26.8069H31.3051H34.1577C34.1943 26.8069 34.1943 26.8069 34.1943 26.8069C34.1943 26.8069 34.2309 26.8435 34.2309 26.88C34.2309 26.9166 34.2309 26.9532 34.2674 26.9897C34.2674 27.0263 34.2674 27.0629 34.2674 27.136Z" fill="white"/>
<path d="M38.6194 28.1967C38.6194 28.2698 38.6194 28.343 38.6194 28.3795C38.6194 28.4161 38.6194 28.4527 38.5828 28.4892C38.5828 28.5258 38.5463 28.5258 38.5463 28.5624H38.5097C38.5097 28.5624 38.4731 28.5624 38.4366 28.5624C38.4 28.5624 38.4 28.5624 38.3634 28.5258C38.3268 28.5258 38.2903 28.5258 38.2903 28.4892C38.2537 28.4892 38.2171 28.4892 38.1806 28.4892C38.144 28.4892 38.1074 28.4892 38.0343 28.5258C37.9977 28.5258 37.9611 28.5624 37.888 28.599C37.8514 28.6355 37.7783 28.6721 37.7417 28.7452C37.7051 28.8184 37.632 28.8915 37.5588 28.9647V30.7201C37.5588 30.7567 37.5588 30.7567 37.5223 30.7932C37.5223 30.7932 37.4857 30.8298 37.4491 30.8298C37.4126 30.8298 37.376 30.8298 37.3394 30.8664C37.3028 30.8664 37.2297 30.8664 37.1566 30.8664C37.0834 30.8664 37.0103 30.8664 36.9737 30.8664C36.9371 30.8664 36.9006 30.8664 36.864 30.8298C36.8274 30.8298 36.8274 30.7932 36.7908 30.7932C36.7908 30.7932 36.7543 30.7567 36.7543 30.7201V27.9041C36.7543 27.8675 36.7543 27.8675 36.7543 27.831C36.7543 27.831 36.7908 27.7944 36.8274 27.7944C36.864 27.7944 36.9006 27.7944 36.9371 27.7578C36.9737 27.7578 37.0468 27.7578 37.0834 27.7578C37.1566 27.7578 37.1931 27.7578 37.2663 27.7578C37.3028 27.7578 37.3394 27.7578 37.376 27.7944C37.4126 27.7944 37.4126 27.831 37.4126 27.831C37.4126 27.831 37.4126 27.8675 37.4126 27.9041V28.2698C37.4857 28.1601 37.5588 28.087 37.632 28.0138C37.7051 27.9407 37.7417 27.9041 37.8148 27.8675C37.888 27.831 37.9246 27.7944 37.9977 27.7944C38.0708 27.7944 38.1074 27.7578 38.1806 27.7578C38.2171 27.7578 38.2537 27.7578 38.2537 27.7578C38.2537 27.7578 38.3268 27.7578 38.3634 27.7578C38.4 27.7578 38.4366 27.7578 38.4366 27.7944C38.4731 27.7944 38.4731 27.831 38.5097 27.831L38.5463 27.8675V27.9041C38.5463 27.9407 38.5463 27.9772 38.5463 28.0138C38.6194 28.087 38.6194 28.1235 38.6194 28.1967Z" fill="white"/>
<path d="M43.8126 30.7566C43.8126 30.7931 43.8126 30.7931 43.776 30.8297C43.7394 30.8297 43.7394 30.8663 43.6663 30.8663C43.6297 30.8663 43.5566 30.8663 43.4834 30.8663C43.3737 30.8663 43.3371 30.8663 43.264 30.8663C43.2274 30.8663 43.1908 30.8297 43.1908 30.8297C43.1908 30.8297 43.1543 30.7931 43.1543 30.7566V30.5371C43.0446 30.6469 42.8983 30.7566 42.752 30.8297C42.6057 30.9029 42.4228 30.9394 42.2766 30.9394C42.1303 30.9394 41.984 30.9029 41.8743 30.8663C41.7646 30.8297 41.6548 30.7566 41.5451 30.6834C41.4354 30.6103 41.3988 30.5006 41.3257 30.3909C41.2891 30.2811 41.2526 30.1349 41.2526 29.9886C41.2526 29.8423 41.2891 29.696 41.3623 29.5497C41.4354 29.44 41.5086 29.3303 41.6548 29.2571C41.7646 29.184 41.9474 29.1109 42.1303 29.0743C42.3131 29.0377 42.5326 29.0011 42.7886 29.0011H43.0446V28.8914C43.0446 28.8183 43.0446 28.7086 43.008 28.672C43.008 28.5989 42.9714 28.5623 42.9348 28.4891C42.8983 28.4526 42.8251 28.416 42.7886 28.3794C42.7154 28.3429 42.6423 28.3429 42.5326 28.3429C42.3863 28.3429 42.2766 28.3429 42.1668 28.3794C42.0571 28.416 41.984 28.4526 41.8743 28.4891C41.8011 28.5257 41.728 28.5623 41.6914 28.5989C41.6548 28.6354 41.5817 28.6354 41.5451 28.6354C41.5086 28.6354 41.5086 28.6354 41.472 28.5989C41.472 28.5989 41.4354 28.5623 41.4354 28.5257C41.4354 28.4891 41.3988 28.4526 41.3988 28.416C41.3988 28.3794 41.3988 28.3429 41.3988 28.2697C41.3988 28.1966 41.3988 28.16 41.3988 28.1234C41.3988 28.0869 41.4354 28.0503 41.472 28.0137C41.5086 27.9771 41.5451 27.9406 41.6183 27.904C41.6914 27.8674 41.7646 27.8309 41.8743 27.7943C41.984 27.7577 42.0937 27.7211 42.2034 27.7211C42.3131 27.6846 42.4228 27.6846 42.5691 27.6846C42.7886 27.6846 42.9714 27.7211 43.1177 27.7577C43.264 27.7943 43.4103 27.8674 43.52 27.9406C43.6297 28.0137 43.7028 28.16 43.7394 28.2697C43.776 28.416 43.8126 28.5623 43.8126 28.7817V30.7566ZM43.0446 29.5497H42.752C42.6423 29.5497 42.5326 29.5497 42.4228 29.5863C42.3497 29.6229 42.2766 29.6229 42.2034 29.6594C42.1303 29.696 42.0937 29.7326 42.0937 29.8057C42.0571 29.8423 42.0571 29.9154 42.0571 29.9886C42.0571 30.0983 42.0937 30.208 42.1668 30.2811C42.24 30.3543 42.3497 30.3909 42.4594 30.3909C42.5691 30.3909 42.6788 30.3543 42.752 30.3177C42.8617 30.2446 42.9348 30.1714 43.0446 30.0617V29.5497Z" fill="white"/>
<path d="M49.7371 30.7567C49.7371 30.7933 49.7371 30.7933 49.7006 30.8299C49.7006 30.8299 49.664 30.8664 49.6274 30.8664C49.5909 30.8664 49.5543 30.8664 49.5177 30.903C49.4811 30.903 49.408 30.903 49.3348 30.903C49.2617 30.903 49.1886 30.903 49.152 30.903C49.1154 30.903 49.0423 30.903 49.0423 30.8664C49.0057 30.8664 49.0057 30.8299 48.9691 30.8299C48.9691 30.8299 48.9326 30.7933 48.9326 30.7567V29.1476C48.9326 29.0013 48.9326 28.8916 48.896 28.8184C48.8594 28.7453 48.8594 28.6721 48.8229 28.6356C48.7863 28.5624 48.7497 28.5259 48.6766 28.4893C48.6034 28.4527 48.5303 28.4527 48.4571 28.4527C48.3474 28.4527 48.2377 28.4893 48.1646 28.5624C48.0548 28.6356 47.9451 28.7453 47.8354 28.8916V30.7567C47.8354 30.7933 47.8354 30.7933 47.7988 30.8299C47.7988 30.8299 47.7623 30.8664 47.7257 30.8664C47.6891 30.8664 47.6526 30.8664 47.616 30.903C47.5794 30.903 47.5063 30.903 47.4331 30.903C47.36 30.903 47.2868 30.903 47.2503 30.903C47.2137 30.903 47.1771 30.903 47.1406 30.8664C47.104 30.8664 47.104 30.8299 47.0674 30.8299C47.0674 30.8299 47.0309 30.7933 47.0309 30.7567V27.9407C47.0309 27.9041 47.0309 27.9041 47.0309 27.8676C47.0309 27.8676 47.0674 27.831 47.104 27.831C47.1406 27.831 47.1771 27.7944 47.2137 27.7944C47.2503 27.7944 47.3234 27.7944 47.36 27.7944C47.4331 27.7944 47.4697 27.7944 47.5429 27.7944C47.5794 27.7944 47.616 27.7944 47.6526 27.831C47.6891 27.831 47.6891 27.8676 47.6891 27.8676C47.6891 27.8676 47.6891 27.9041 47.6891 27.9407V28.2699C47.8354 28.087 48.0183 27.9773 48.1646 27.9041C48.3109 27.831 48.4937 27.7944 48.6766 27.7944C48.8594 27.7944 49.0423 27.831 49.152 27.9041C49.2983 27.9773 49.3714 28.0504 49.4811 28.1601C49.5543 28.2699 49.6274 28.3796 49.664 28.5259C49.7006 28.6721 49.7006 28.855 49.7006 29.0379V30.7567H49.7371Z" fill="white"/>
<path d="M54.9303 29.952C54.9303 30.0983 54.8937 30.2446 54.8571 30.3909C54.784 30.5006 54.7109 30.6103 54.6011 30.6834C54.4914 30.7566 54.3451 30.8297 54.1989 30.8663C54.0526 30.9029 53.9063 30.9394 53.7234 30.9394C53.6137 30.9394 53.504 30.9394 53.4309 30.9029C53.3211 30.9029 53.248 30.8663 53.1749 30.8297C53.1017 30.7931 53.0286 30.7931 52.992 30.7566C52.9554 30.72 52.9189 30.72 52.8823 30.6834C52.8457 30.6469 52.8457 30.6103 52.8457 30.5737C52.8457 30.5371 52.8091 30.464 52.8091 30.3543C52.8091 30.2811 52.8091 30.2446 52.8091 30.208C52.8091 30.1714 52.8091 30.1349 52.8457 30.1349C52.8457 30.0983 52.8823 30.0983 52.8823 30.0983H52.9189C52.9554 30.0983 52.992 30.0983 53.0286 30.1349C53.0651 30.1714 53.1383 30.208 53.2114 30.208C53.2846 30.2446 53.3577 30.2811 53.4309 30.2811C53.504 30.3177 53.6137 30.3177 53.7234 30.3177C53.7966 30.3177 53.8697 30.3177 53.9063 30.2811C53.9794 30.2811 54.016 30.2446 54.0526 30.208C54.0891 30.1714 54.1257 30.1349 54.1623 30.0983C54.1989 30.0617 54.1989 30.0251 54.1989 29.952C54.1989 29.8789 54.1623 29.8423 54.1257 29.8057C54.0891 29.7691 54.0526 29.7326 53.9794 29.696C53.9063 29.6594 53.8331 29.6229 53.76 29.5863C53.6869 29.5497 53.6137 29.5131 53.504 29.4766C53.4309 29.44 53.3211 29.4034 53.248 29.3669C53.1749 29.3303 53.1017 29.2571 53.0286 29.184C52.9554 29.1109 52.9189 29.0377 52.8823 28.928C52.8457 28.8183 52.8091 28.7086 52.8091 28.5989C52.8091 28.4526 52.8457 28.3429 52.8823 28.2331C52.9189 28.1234 52.992 28.0137 53.1017 27.9406C53.2114 27.8674 53.3211 27.7943 53.4674 27.7577C53.6137 27.7211 53.76 27.6846 53.9429 27.6846C54.016 27.6846 54.1257 27.6846 54.1989 27.7211C54.272 27.7211 54.3451 27.7577 54.4183 27.7577C54.4914 27.7943 54.528 27.7943 54.6011 27.8309C54.6377 27.8674 54.6743 27.8674 54.7109 27.904C54.7474 27.904 54.7474 27.9406 54.7474 27.9406C54.7474 27.9406 54.7474 27.9771 54.784 28.0137C54.784 28.0503 54.784 28.0503 54.784 28.0869C54.784 28.1234 54.784 28.16 54.784 28.1966C54.784 28.2697 54.784 28.3063 54.784 28.3429C54.784 28.3794 54.784 28.416 54.784 28.416C54.784 28.4526 54.784 28.4526 54.7474 28.4526H54.7109C54.6743 28.4526 54.6743 28.4526 54.6377 28.416C54.6011 28.3794 54.5646 28.3794 54.4914 28.3429C54.4183 28.3063 54.3451 28.3063 54.272 28.2697C54.1989 28.2331 54.0891 28.2331 54.016 28.2331C53.9429 28.2331 53.8697 28.2331 53.8331 28.2697C53.7966 28.2697 53.7234 28.3063 53.6869 28.3429C53.6503 28.3794 53.6137 28.416 53.6137 28.4526C53.6137 28.4891 53.5771 28.5257 53.5771 28.5623C53.5771 28.6354 53.6137 28.672 53.6503 28.7086C53.6869 28.7451 53.76 28.7817 53.7966 28.8183C53.8697 28.8549 53.9429 28.8914 54.016 28.928C54.0891 28.9646 54.1989 29.0011 54.272 29.0377C54.3451 29.0743 54.4549 29.1109 54.528 29.1474C54.6011 29.184 54.6743 29.2571 54.7474 29.3303C54.8206 29.4034 54.8571 29.4766 54.8937 29.5863C54.9303 29.7326 54.9303 29.8423 54.9303 29.952Z" fill="white"/>
<path d="M60.8183 29.2938C60.8183 29.5498 60.7817 29.7692 60.7452 29.9521C60.7086 30.135 60.5989 30.3178 60.5257 30.4641C60.416 30.6104 60.3063 30.7201 60.16 30.7932C60.0137 30.8664 59.8309 30.903 59.648 30.903C59.5749 30.903 59.5017 30.903 59.4286 30.8664C59.3554 30.8664 59.2823 30.8298 59.2457 30.7932C59.1726 30.7567 59.136 30.7201 59.0629 30.6835C58.9897 30.647 58.9532 30.5738 58.88 30.5007V31.8172C58.88 31.8538 58.88 31.8538 58.8434 31.8904C58.8434 31.8904 58.8069 31.927 58.7703 31.927C58.7337 31.927 58.6972 31.9635 58.6606 31.9635C58.624 31.9635 58.5509 31.9635 58.4777 31.9635C58.4046 31.9635 58.3314 31.9635 58.2949 31.9635C58.2583 31.9635 58.2217 31.9635 58.1852 31.927C58.1486 31.927 58.1486 31.8904 58.112 31.8904C58.112 31.8904 58.0754 31.8538 58.0754 31.8172V27.9407C58.0754 27.9041 58.0754 27.9041 58.0754 27.8675C58.0754 27.8675 58.112 27.831 58.1486 27.831C58.1852 27.831 58.2217 27.831 58.2583 27.7944C58.2949 27.7944 58.368 27.7944 58.4046 27.7944C58.4777 27.7944 58.5143 27.7944 58.5509 27.7944C58.5874 27.7944 58.624 27.7944 58.6606 27.831C58.6972 27.831 58.6972 27.8675 58.7337 27.8675C58.7337 27.8675 58.7337 27.9041 58.7337 27.9407V28.2698C58.8069 28.1967 58.88 28.1235 58.9897 28.0504C59.0629 27.9772 59.136 27.9407 59.2457 27.9041C59.3189 27.8675 59.4286 27.831 59.5017 27.7944C59.5749 27.7578 59.6846 27.7578 59.7943 27.7578C60.0137 27.7578 60.16 27.7944 60.3063 27.8675C60.4526 27.9407 60.5623 28.0504 60.672 28.1967C60.7452 28.343 60.8183 28.4892 60.8549 28.6721C60.7817 28.8915 60.8183 29.111 60.8183 29.2938ZM59.9772 29.367C59.9772 29.2572 59.9772 29.1475 59.9406 29.0378C59.9406 28.9281 59.904 28.8184 59.8674 28.7452C59.8309 28.6721 59.7577 28.599 59.6846 28.5258C59.6114 28.4892 59.5383 28.4527 59.4286 28.4527C59.392 28.4527 59.3189 28.4527 59.2823 28.4892C59.2457 28.4892 59.1726 28.5258 59.136 28.5624C59.0994 28.599 59.0263 28.6355 58.9532 28.7087C58.88 28.7818 58.8434 28.8184 58.7703 28.9281V29.8424C58.88 29.9887 58.9897 30.0984 59.0994 30.1715C59.2092 30.2447 59.3189 30.2812 59.4286 30.2812C59.5383 30.2812 59.6114 30.2447 59.6846 30.2081C59.7577 30.1715 59.8309 30.0984 59.8674 29.9887C59.904 29.9155 59.9406 29.8058 59.9772 29.6961C59.9772 29.5864 59.9772 29.4767 59.9772 29.367Z" fill="white"/>
<path d="M66.7429 29.3304C66.7429 29.5864 66.7063 29.8059 66.6331 29.9887C66.56 30.1716 66.4869 30.3544 66.3406 30.5007C66.2309 30.647 66.048 30.7567 65.8651 30.8299C65.6823 30.903 65.4629 30.9396 65.1703 30.9396C64.9143 30.9396 64.6949 30.903 64.512 30.8299C64.3291 30.7567 64.1829 30.647 64.0366 30.5373C63.9269 30.391 63.8171 30.2447 63.7806 30.0619C63.7074 29.879 63.7074 29.6596 63.7074 29.4036C63.7074 29.1476 63.744 28.9281 63.8171 28.7453C63.8903 28.5624 63.9634 28.3796 64.1097 28.2333C64.2194 28.087 64.4023 27.9773 64.5851 27.9041C64.768 27.831 64.9874 27.7944 65.2434 27.7944C65.4994 27.7944 65.7189 27.831 65.9017 27.9041C66.0846 27.9773 66.2309 28.087 66.3771 28.1967C66.4869 28.343 66.5966 28.4893 66.6331 28.6721C66.7063 28.855 66.7429 29.0744 66.7429 29.3304ZM65.9383 29.367C65.9383 29.2207 65.9383 29.111 65.9017 29.0013C65.8651 28.8916 65.8286 28.7819 65.792 28.7087C65.7554 28.6356 65.6823 28.5624 65.5726 28.4893C65.4994 28.4527 65.3897 28.4161 65.2434 28.4161C65.1337 28.4161 65.024 28.4527 64.9509 28.4893C64.8777 28.5259 64.8046 28.599 64.7314 28.6721C64.6583 28.7453 64.6217 28.855 64.6217 28.9647C64.5851 29.0744 64.5851 29.2207 64.5851 29.367C64.5851 29.5133 64.5851 29.623 64.6217 29.7327C64.6583 29.8424 64.6949 29.9521 64.7314 30.0253C64.768 30.0984 64.8411 30.1716 64.9509 30.2081C65.024 30.2447 65.1337 30.2813 65.28 30.2813C65.3897 30.2813 65.4994 30.2447 65.6091 30.2081C65.6823 30.1716 65.7554 30.0984 65.8286 30.0253C65.9017 29.9521 65.9383 29.8424 65.9383 29.7327C65.9017 29.623 65.9383 29.5133 65.9383 29.367Z" fill="white"/>
<path d="M71.6068 28.1967C71.6068 28.2698 71.6068 28.343 71.6068 28.3795C71.6068 28.4161 71.6068 28.4527 71.5703 28.4892C71.5703 28.5258 71.5337 28.5258 71.5337 28.5624H71.4971C71.4971 28.5624 71.4606 28.5624 71.424 28.5624C71.3874 28.5624 71.3874 28.5624 71.3508 28.5258C71.3143 28.5258 71.2777 28.5258 71.2777 28.4892C71.2411 28.4892 71.2046 28.4892 71.168 28.4892C71.1314 28.4892 71.0948 28.4892 71.0217 28.5258C70.9851 28.5258 70.9486 28.5624 70.8754 28.599C70.8388 28.6355 70.7657 28.6721 70.7291 28.7452C70.6926 28.8184 70.6194 28.8915 70.5463 28.9647V30.7201C70.5463 30.7567 70.5463 30.7567 70.5097 30.7932C70.5097 30.7932 70.4731 30.8298 70.4366 30.8298C70.4 30.8298 70.3634 30.8298 70.3268 30.8664C70.2903 30.8664 70.2171 30.8664 70.144 30.8664C70.0708 30.8664 69.9977 30.8664 69.9611 30.8664C69.9246 30.8664 69.888 30.8664 69.8514 30.8298C69.8148 30.8298 69.8148 30.7932 69.7783 30.7932C69.7783 30.7932 69.7417 30.7567 69.7417 30.7201V27.9041C69.7417 27.8675 69.7417 27.8675 69.7417 27.831C69.7417 27.831 69.7783 27.7944 69.8148 27.7944C69.8514 27.7944 69.888 27.7944 69.9246 27.7578C69.9611 27.7578 70.0343 27.7578 70.0708 27.7578C70.144 27.7578 70.1806 27.7578 70.2537 27.7578C70.2903 27.7578 70.3268 27.7578 70.3634 27.7944C70.4 27.7944 70.4 27.831 70.4 27.831C70.4 27.831 70.4 27.8675 70.4 27.9041V28.2698C70.4731 28.1601 70.5463 28.087 70.6194 28.0138C70.6926 27.9407 70.7291 27.9041 70.8023 27.8675C70.8754 27.831 70.912 27.7944 70.9851 27.7944C71.0583 27.7944 71.0948 27.7578 71.168 27.7578C71.2046 27.7578 71.2411 27.7578 71.2411 27.7578C71.2777 27.7578 71.3143 27.7578 71.3508 27.7578C71.3874 27.7578 71.424 27.7578 71.424 27.7944C71.4606 27.7944 71.4606 27.831 71.4971 27.831L71.5337 27.8675V27.9041C71.5337 27.9407 71.5337 27.9772 71.5337 28.0138C71.6068 28.087 71.6068 28.1235 71.6068 28.1967Z" fill="white"/>
<path d="M76.2149 30.4641C76.2149 30.5738 76.2149 30.6104 76.2149 30.6836C76.2149 30.7201 76.1783 30.7567 76.1783 30.7933C76.1417 30.8298 76.1417 30.8298 76.1052 30.8298C76.0686 30.8298 76.032 30.8664 75.9589 30.8664C75.9223 30.8664 75.8492 30.903 75.8126 30.903C75.7394 30.903 75.7029 30.903 75.6297 30.903C75.4834 30.903 75.3371 30.8664 75.2274 30.8298C75.1177 30.7933 75.008 30.7201 74.9349 30.647C74.8617 30.5738 74.7886 30.4641 74.752 30.3178C74.7154 30.2081 74.7154 30.0253 74.7154 29.879V28.4527H74.3863C74.3497 28.4527 74.3131 28.4161 74.3131 28.3796C74.2766 28.343 74.2766 28.2333 74.2766 28.1236C74.2766 28.0504 74.2766 28.0138 74.2766 27.9773C74.2766 27.9407 74.2766 27.9041 74.3131 27.8676C74.3131 27.831 74.3497 27.831 74.3497 27.831C74.3497 27.831 74.3863 27.831 74.4229 27.831H74.752V27.2093C74.752 27.1727 74.752 27.1727 74.752 27.1361C74.752 27.1361 74.7886 27.0996 74.8252 27.0996C74.8617 27.0996 74.8983 27.063 74.9349 27.063C74.9714 27.063 75.0446 27.063 75.1177 27.063C75.1909 27.063 75.264 27.063 75.3006 27.063C75.3371 27.063 75.4103 27.063 75.4103 27.0996C75.4469 27.0996 75.4469 27.1361 75.4834 27.1361C75.4834 27.1361 75.52 27.1727 75.52 27.2093V27.831H76.1417C76.1783 27.831 76.1783 27.831 76.2149 27.831L76.2514 27.8676C76.2514 27.9041 76.2514 27.9407 76.288 27.9773C76.288 28.0138 76.288 28.087 76.288 28.1236C76.288 28.2333 76.288 28.3064 76.2514 28.3796C76.2149 28.4161 76.2149 28.4527 76.1783 28.4527H75.5566V29.7693C75.5566 29.9156 75.5932 30.0253 75.6297 30.0984C75.6663 30.1716 75.776 30.2081 75.8857 30.2081C75.9223 30.2081 75.9589 30.2081 75.9954 30.2081C76.032 30.2081 76.0686 30.2081 76.0686 30.1716C76.1051 30.1716 76.1051 30.1716 76.1417 30.135H76.1783H76.2149L76.2514 30.1716C76.2514 30.2081 76.2514 30.2081 76.2514 30.2447C76.2149 30.3544 76.2149 30.4276 76.2149 30.4641Z" fill="white"/>
<path d="M81.7372 29.2572C81.7372 29.3669 81.7006 29.44 81.664 29.4766C81.6274 29.5132 81.5543 29.5498 81.4812 29.5498H79.7623C79.7623 29.6595 79.7623 29.7692 79.7989 29.8789C79.8354 29.9886 79.872 30.0618 79.9452 30.1349C80.0183 30.208 80.0914 30.2446 80.2012 30.2812C80.3109 30.3178 80.4206 30.3178 80.5669 30.3178C80.7132 30.3178 80.8229 30.3178 80.9326 30.2812C81.0423 30.2446 81.1154 30.2446 81.1886 30.208C81.2617 30.1715 81.3349 30.1715 81.3714 30.1349C81.408 30.0983 81.4446 30.0983 81.4812 30.0983C81.5177 30.0983 81.5177 30.0983 81.5177 30.0983L81.5543 30.1349C81.5543 30.1715 81.5543 30.1715 81.5543 30.208C81.5543 30.2446 81.5543 30.2812 81.5543 30.3543C81.5543 30.3909 81.5543 30.4275 81.5543 30.464C81.5543 30.5006 81.5543 30.5372 81.5543 30.5372C81.5543 30.5738 81.5543 30.5738 81.5177 30.6103L81.4812 30.6469C81.4812 30.6469 81.4446 30.6835 81.3714 30.72C81.2983 30.7566 81.2252 30.7566 81.152 30.7932C81.0423 30.8298 80.9326 30.8298 80.8229 30.8663C80.7132 30.8663 80.5669 30.9029 80.4206 30.9029C80.1646 30.9029 79.9452 30.8663 79.7623 30.7932C79.5794 30.72 79.4332 30.6469 79.2869 30.5006C79.1772 30.3909 79.0674 30.208 78.9943 30.0252C78.9212 29.8423 78.8846 29.5863 78.8846 29.3303C78.8846 29.0743 78.9212 28.8549 78.9943 28.672C79.0674 28.4892 79.1406 28.3063 79.2869 28.16C79.3966 28.0138 79.5794 27.904 79.7257 27.8309C79.9086 27.7578 80.0914 27.7212 80.3109 27.7212C80.5303 27.7212 80.7497 27.7578 80.896 27.8309C81.0789 27.904 81.1886 28.0138 81.2983 28.1235C81.408 28.2332 81.4812 28.3795 81.5177 28.5623C81.5543 28.7452 81.5909 28.928 81.5909 29.1109V29.2572H81.7372ZM80.9692 29.0378C80.9692 28.8183 80.9326 28.6355 80.8229 28.5258C80.7132 28.416 80.5669 28.3429 80.384 28.3429C80.2743 28.3429 80.2012 28.3795 80.128 28.416C80.0549 28.4526 79.9817 28.4892 79.9452 28.5623C79.9086 28.6355 79.872 28.7086 79.8354 28.7818C79.7989 28.8549 79.7989 28.9646 79.7989 29.0743H80.9692V29.0378Z" fill="white"/>
<path d="M86.8206 29.952C86.8206 30.0983 86.784 30.2446 86.7474 30.3909C86.6743 30.5006 86.6011 30.6103 86.4914 30.6834C86.3817 30.7566 86.2354 30.8297 86.0891 30.8663C85.9429 30.9029 85.7966 30.9394 85.6137 30.9394C85.504 30.9394 85.3943 30.9394 85.3211 30.9029C85.2114 30.9029 85.1383 30.8663 85.0651 30.8297C84.992 30.7931 84.9189 30.7931 84.8823 30.7566C84.8457 30.72 84.8091 30.72 84.7726 30.6834C84.736 30.6469 84.736 30.6103 84.736 30.5737C84.736 30.5371 84.6994 30.464 84.6994 30.3543C84.6994 30.2811 84.6994 30.2446 84.6994 30.208C84.6994 30.1714 84.6994 30.1349 84.736 30.1349C84.736 30.0983 84.7726 30.0983 84.7726 30.0983H84.8091C84.8457 30.0983 84.8823 30.0983 84.9189 30.1349C84.9554 30.1714 85.0286 30.208 85.1017 30.208C85.1749 30.2446 85.248 30.2811 85.3211 30.2811C85.3943 30.3177 85.504 30.3177 85.6137 30.3177C85.6869 30.3177 85.76 30.3177 85.7966 30.2811C85.8697 30.2811 85.9063 30.2446 85.9429 30.208C85.9794 30.1714 86.016 30.1349 86.0526 30.0983C86.0891 30.0617 86.0891 30.0251 86.0891 29.952C86.0891 29.8789 86.0526 29.8423 86.016 29.8057C85.9794 29.7691 85.9429 29.7326 85.8697 29.696C85.7966 29.6594 85.7234 29.6229 85.6503 29.5863C85.5771 29.5497 85.504 29.5131 85.3943 29.4766C85.3211 29.44 85.2114 29.4034 85.1383 29.3669C85.0651 29.3303 84.992 29.2571 84.9189 29.184C84.8457 29.1109 84.8091 29.0377 84.7726 28.928C84.736 28.8183 84.6994 28.7086 84.6994 28.5989C84.6994 28.4526 84.736 28.3429 84.7726 28.2331C84.8091 28.1234 84.8823 28.0137 84.992 27.9406C85.1017 27.8674 85.2114 27.7943 85.3577 27.7577C85.504 27.7211 85.6503 27.6846 85.8331 27.6846C85.9063 27.6846 86.016 27.6846 86.0891 27.7211C86.1623 27.7211 86.2354 27.7577 86.3086 27.7577C86.3817 27.7943 86.4183 27.7943 86.4914 27.8309C86.528 27.8674 86.5646 27.8674 86.6011 27.904C86.6377 27.904 86.6377 27.9406 86.6377 27.9406C86.6377 27.9406 86.6377 27.9771 86.6743 28.0137C86.6743 28.0503 86.6743 28.0503 86.6743 28.0869C86.6743 28.1234 86.6743 28.16 86.6743 28.1966C86.6743 28.2697 86.6743 28.3063 86.6743 28.3429C86.6743 28.3794 86.6743 28.416 86.6743 28.416C86.6743 28.4526 86.6743 28.4526 86.6377 28.4526H86.6011C86.5646 28.4526 86.5646 28.4526 86.528 28.416C86.4914 28.3794 86.4549 28.3794 86.3817 28.3429C86.3086 28.3063 86.2354 28.3063 86.1623 28.2697C86.0891 28.2331 85.9794 28.2331 85.9063 28.2331C85.8331 28.2331 85.76 28.2331 85.7234 28.2697C85.6869 28.2697 85.6137 28.3063 85.5771 28.3429C85.5406 28.3794 85.504 28.416 85.504 28.4526C85.504 28.4891 85.4674 28.5257 85.4674 28.5623C85.4674 28.6354 85.504 28.672 85.5406 28.7086C85.5771 28.7451 85.6503 28.7817 85.6869 28.8183C85.76 28.8549 85.8331 28.8914 85.9063 28.928C85.9794 28.9646 86.0891 29.0011 86.1623 29.0377C86.2354 29.0743 86.3451 29.1109 86.4183 29.1474C86.4914 29.184 86.5646 29.2571 86.6377 29.3303C86.7109 29.4034 86.7474 29.4766 86.784 29.5863C86.8206 29.7326 86.8206 29.8423 86.8206 29.952Z" fill="white"/>
</g>
<defs>
<clipPath id="clip0_2445_9">
<rect width="89.4537" height="32" fill="white"/>
</clipPath>
</defs>
</svg>
