<svg width="97" height="24" viewBox="0 0 97 24" fill="none" xmlns="http://www.w3.org/2000/svg">
<g clip-path="url(#clip0_2409_96)">
<path d="M11.5926 9.26476V5.74973C11.5926 3.95729 11.1736 2.56059 10.3123 1.62945C9.45102 0.698318 8.17071 0.209473 6.47139 0.209473H0V23.7905H6.30844C8.26382 23.7905 9.63725 23.1852 10.4054 21.9747C11.1969 20.7643 11.5694 19.0417 11.5694 16.8069V14.7352C10.4287 14.3394 9.61397 13.2686 9.61397 12.0116C9.61397 10.7546 10.452 9.66049 11.5926 9.26476ZM6.86712 18.3666C6.86712 19.2046 6.42483 19.6236 5.56353 19.6236H4.74879V4.32974H5.26091C5.91271 4.32974 6.33172 4.44614 6.54122 4.67892C6.75073 4.9117 6.86712 5.42383 6.86712 6.19201V18.3666V18.3666Z" fill="white"/>
<path d="M20.2289 13.6411V17.8778C20.2289 18.4132 20.1358 18.8322 19.9729 19.1581C19.8099 19.484 19.5306 19.6469 19.1116 19.6469C18.7624 19.6469 18.4831 19.5073 18.2968 19.2512C18.1106 18.9951 18.0175 18.5296 18.0175 17.8778V6.07565C18.0175 5.54025 18.0873 5.12124 18.2503 4.81862C18.3899 4.49273 18.6926 4.35306 19.1349 4.35306C19.5073 4.35306 19.7866 4.46945 19.9729 4.72551C20.1591 4.98157 20.2289 5.44714 20.2289 6.14549V9.63725H24.9079V5.54025C24.9079 4.3065 24.6518 3.28225 24.163 2.44423C23.6509 1.62949 22.9758 1.02425 22.1145 0.605238C21.2299 0.209505 20.2522 0 19.1349 0C17.0864 0 15.6198 0.605238 14.712 1.81571C13.8041 3.02619 13.3618 4.77207 13.3618 7.07662V9.24151C14.5723 9.59069 15.4336 10.7081 15.4336 12.0116C15.4336 13.3152 14.549 14.4326 13.3618 14.7818V17.9476C13.3618 19.8564 13.8739 21.3463 14.9215 22.4171C15.969 23.4879 17.3424 24 19.0417 24C20.904 24 22.3705 23.5344 23.4181 22.6033C24.4656 21.6722 24.9777 20.1591 24.9777 18.0873V13.6411H20.2289Z" fill="white"/>
<path d="M36.71 5.16783C35.6392 4.05047 34.1727 3.46851 32.2871 3.46851C30.4016 3.46851 28.935 4.02719 27.8875 5.16783C26.8167 6.30847 26.3046 7.79828 26.3046 9.70711V17.7614C26.3046 21.905 28.3065 23.9767 32.3104 23.9767C36.3143 23.9767 38.3162 21.905 38.3162 17.7614V9.70711C38.3162 7.82156 37.7808 6.30847 36.71 5.16783ZM33.4277 18.7624C33.4277 19.2047 33.3346 19.5771 33.1717 19.8798C33.0087 20.1824 32.7061 20.322 32.3104 20.322C31.9147 20.322 31.612 20.1824 31.4491 19.8798C31.2861 19.5771 31.193 19.228 31.193 18.7624V8.93892C31.193 7.775 31.5655 7.19305 32.3104 7.19305C33.0553 7.19305 33.4277 7.775 33.4277 8.93892V18.7624V18.7624Z" fill="white"/>
<path d="M50.933 4.77201C50.3045 3.91071 49.3036 3.4917 47.9069 3.4917C47.0456 3.4917 46.3705 3.77104 45.8816 4.30644C45.3928 4.84184 45.0669 5.49364 44.8807 6.26183V3.7012H40.0853V23.7904H44.8807V9.66047C44.8807 9.28801 44.904 8.91556 44.9505 8.51983C44.9971 8.14737 45.1135 7.82148 45.2764 7.56541C45.4626 7.30935 45.7187 7.19296 46.0911 7.19296C46.4869 7.19296 46.7662 7.35591 46.9292 7.70508C47.0921 8.03098 47.162 8.40344 47.162 8.79917V23.7904H51.8875V8.28704C51.8642 6.79723 51.5616 5.63331 50.933 4.77201Z" fill="white"/>
<path d="M60.5936 8.12412V4.46941H59.2434V0.209473H54.5878V4.46941H53.2376V8.12412H54.5878V20.6479C54.5878 21.7885 54.8205 22.6265 55.2628 23.1619C55.7051 23.7206 56.5897 23.9767 57.87 23.9767C58.452 23.9767 59.0339 23.9301 59.5926 23.8137C60.1513 23.7206 60.5005 23.6508 60.5936 23.6042V20.3453C60.4306 20.3685 60.2211 20.3918 60.0116 20.3918C59.709 20.3918 59.4995 20.322 59.4064 20.1823C59.29 20.0426 59.2434 19.8099 59.2434 19.484V8.07756H60.5936V8.12412Z" fill="white"/>
<path d="M68.2289 4.12039C67.6469 4.56267 67.2279 5.16791 66.9951 5.9361V3.70137H62.1299V23.7906H66.9951V8.42688C66.9951 8.24066 67.2046 8.07771 67.6236 7.93804C68.0427 7.79837 68.5082 7.68198 69.0669 7.58886C69.6023 7.49575 70.0912 7.47247 70.4636 7.47247V3.44531C69.5557 3.44531 68.8108 3.6781 68.2289 4.12039Z" fill="white"/>
<path d="M81.8933 5.16783C80.8225 4.05047 79.356 3.46851 77.4704 3.46851C75.5849 3.46851 74.1183 4.02719 73.0708 5.16783C72 6.30847 71.4646 7.79828 71.4646 9.70711V17.7614C71.4646 21.905 73.4665 23.9767 77.4704 23.9767C81.4743 23.9767 83.4762 21.905 83.4762 17.7614V9.70711C83.4762 7.82156 82.9408 6.30847 81.8933 5.16783ZM78.5878 18.7624C78.5878 19.2047 78.4947 19.5771 78.3317 19.8798C78.1455 20.1591 77.8661 20.322 77.4704 20.322C77.0747 20.322 76.7721 20.1824 76.6091 19.8798C76.4462 19.6004 76.3531 19.228 76.3531 18.7624V8.93892C76.3531 7.775 76.7255 7.19305 77.4704 7.19305C78.2153 7.19305 78.5878 7.775 78.5878 8.93892V18.7624Z" fill="white"/>
<path d="M85.2454 0.209473V23.7905H90.1106V0.209473H85.2454Z" fill="white"/>
<path d="M92.066 0.209473V23.7905H96.9312V0.209473H92.066Z" fill="white"/>
</g>
<defs>
<clipPath id="clip0_2409_96">
<rect width="96.9311" height="24" fill="white"/>
</clipPath>
</defs>
</svg>
