<svg width="116" height="30" viewBox="0 0 116 30" fill="none" xmlns="http://www.w3.org/2000/svg">
<g clip-path="url(#clip0_2445_25)">
<path d="M109.543 21.3198V12.132C109.543 10.9645 109.442 10.2031 109.34 9.8985C109.137 9.34012 108.68 8.88327 108.02 8.5787C107.817 8.47718 107.462 8.32489 106.853 8.07109H115.33C114.365 8.42642 113.655 8.83251 113.3 9.2386C112.995 9.59393 112.792 9.94926 112.741 10.4061C112.69 10.8122 112.64 11.3706 112.64 12.132V30L97.1574 13.5026V24.8731C97.1574 26.0406 97.2589 26.8021 97.3604 27.1066C97.5635 27.665 98.0203 28.1219 98.6802 28.4264C98.8833 28.5279 99.2386 28.6802 99.8477 28.934H91.3706C92.335 28.5787 93.0457 28.1726 93.401 27.7665C93.7056 27.4112 93.9086 27.0559 93.9594 26.599C94.0102 26.1929 94.0609 25.6345 94.0609 24.8731V12.1828C94.0609 10.8122 93.8071 9.8985 93.2995 9.28936C92.7919 8.78175 92.0305 8.37565 90.9137 8.02032H97.0051L109.543 21.3198ZM78.6802 10.5584C76.599 10.5584 74.9239 11.4213 73.6548 13.1472C72.5888 14.6193 72.0305 16.3452 72.0305 18.4264C72.0305 20.5584 72.5888 22.4366 73.7564 24.0102C75.0254 25.7361 76.599 26.5482 78.5279 26.5482C79.5432 26.5482 80.5584 26.2944 81.4721 25.7361C82.4366 25.2284 83.198 24.5178 83.8071 23.6041C84.7208 22.2843 85.1777 20.5076 85.1777 18.3249C85.1777 16.2437 84.6701 14.467 83.6548 12.9949C82.5381 11.3706 80.863 10.5584 78.6802 10.5584ZM78.8325 7.61423C81.9797 7.61423 84.5178 8.62946 86.4467 10.6092C88.4264 12.6396 89.3909 15.2284 89.3909 18.3249C89.3909 21.4721 88.3249 24.1117 86.2437 26.2437C84.1624 28.3249 81.6244 29.3909 78.6294 29.3909C76.9543 29.3909 75.3807 29.0356 73.9086 28.3249C72.4366 27.6142 71.2183 26.599 70.2031 25.33C68.6294 23.3503 67.868 21.0153 67.868 18.2741C67.868 15.9391 68.4772 13.8579 69.6954 12.0305C71.6244 9.08632 74.6701 7.61423 78.8325 7.61423ZM66.4975 21.4213C66.1421 23.8071 65.8883 26.3452 65.736 28.9848H50.7614C51.7259 28.6295 52.4366 28.2234 52.7919 27.8173C53.0965 27.462 53.2995 27.1066 53.3503 26.6498C53.401 26.2437 53.4518 25.6853 53.4518 24.9239V12.132C53.4518 10.9645 53.3503 10.2031 53.2487 9.8985C53.0457 9.34012 52.5888 8.88327 51.9797 8.5787C51.7767 8.47718 51.3706 8.32489 50.8122 8.07109H60C59.0355 8.42642 58.3249 8.83251 57.9695 9.2386C57.665 9.59393 57.4619 9.94926 57.4112 10.4061C57.3604 10.8122 57.3097 11.3706 57.3097 12.132V23.5026C57.3097 24.4163 57.4112 25.0254 57.665 25.33C57.9188 25.6853 58.3756 25.8376 59.0863 25.8883H61.066C62.6396 25.8883 63.9086 25.4315 64.8223 24.6193C65.4822 23.8579 66.0406 22.7919 66.4975 21.4213ZM37.9695 10.5584C35.8883 10.5584 34.2132 11.4213 32.9442 13.1472C31.8782 14.6193 31.3198 16.3452 31.3198 18.4264C31.3198 20.5584 31.8782 22.4366 33.0457 24.0102C34.3147 25.7361 35.8883 26.5482 37.8173 26.5482C38.8325 26.5482 39.8477 26.2944 40.7614 25.7361C41.7259 25.2284 42.4873 24.5178 43.0965 23.6041C44.0102 22.2843 44.467 20.5076 44.467 18.3249C44.467 16.2437 43.9594 14.467 42.9442 12.9949C41.8274 11.3706 40.1523 10.5584 37.9695 10.5584ZM38.1218 7.61423C41.269 7.61423 43.8071 8.62946 45.736 10.6092C47.7157 12.6396 48.6802 15.2284 48.6802 18.3249C48.6802 21.4721 47.6142 24.1117 45.533 26.2437C43.4518 28.3249 40.9137 29.3909 37.9188 29.3909C36.2437 29.3909 34.6701 29.0356 33.198 28.3249C31.7259 27.6142 30.5076 26.599 29.4924 25.33C27.9188 23.3503 27.1574 21.0153 27.1574 18.2741C27.1574 15.9391 27.7665 13.8579 28.9848 12.0305C30.9137 9.08632 33.9594 7.61423 38.1218 7.61423ZM25.0761 21.9797L24.5178 27.8173C23.3503 28.1726 22.3858 28.4772 21.6244 28.6295C19.4416 29.1878 17.2589 29.4924 15.0761 29.4924C10.6599 29.4924 7.15736 28.1726 4.41624 25.533C2.94416 24.1117 1.82741 22.4873 1.06599 20.6092C0.406091 18.7817 0 16.8528 0 14.7716C0 11.7767 0.812183 9.08631 2.38579 6.70053C3.85787 4.46702 5.73604 2.84266 8.12183 1.77667C10.2538 0.761441 12.6396 0.304588 15.2284 0.304588C17.1066 0.304588 19.2386 0.507634 21.6244 0.862964C22.0305 0.913725 22.3858 0.964487 22.5888 0.964487C23.198 0.964487 23.7056 0.659918 24.1117 0.0507812V6.80205C23.5025 5.88834 22.8934 5.27921 22.335 4.87312C20.5584 3.65484 18.4772 3.04571 15.9898 3.04571C14.1117 3.04571 12.3858 3.4518 10.8122 4.21322C9.23858 5.0254 7.91878 6.09139 6.95432 7.51271C5.68528 9.39088 5.02538 11.7767 5.02538 14.5685C5.02538 18.2234 6.04061 21.066 8.12183 23.198C10.0508 25.1777 12.6904 26.1422 15.9391 26.1422C18.0203 26.1422 20 25.6853 21.8274 24.7208C22.8426 24.1625 23.6548 23.6548 24.1624 23.1472C24.4162 22.8427 24.7208 22.4873 25.0761 21.9797Z" fill="white"/>
</g>
<defs>
<clipPath id="clip0_2445_25">
<rect width="115.381" height="30" fill="white"/>
</clipPath>
</defs>
</svg>
