<svg width="47" height="30" viewBox="0 0 47 30" fill="none" xmlns="http://www.w3.org/2000/svg">
<g clip-path="url(#clip0_80_136)">
<path d="M47 30H43.7557C40.9982 21.3176 32.9589 15.0187 23.5 15.0187C14.0411 15.0187 6.00183 21.3176 3.24843 30H0C2.85568 19.5529 12.3064 11.863 23.5 11.863C34.6895 11.863 44.1443 19.5529 47 30Z" fill="white"/>
<path d="M42.4015 13.0962C42.0988 14.3751 41.3951 15.4837 40.3968 16.2851C39.9386 15.8948 39.4681 15.517 38.9853 15.1557C39.8649 14.591 40.4786 13.7149 40.7241 12.6851C40.9778 11.6304 40.8059 10.5384 40.2495 9.6083C39.0958 7.69412 36.6247 7.08789 34.7386 8.25882L33.8672 6.80969C31.5147 3.66644 27.6485 1.75225 23.5 1.75225C16.9132 1.75225 11.4759 6.83875 10.8009 13.3453C10.7559 13.7938 10.7313 14.2505 10.7313 14.7156C10.7313 18.5356 12.3678 21.9779 14.9698 24.3529C17.2118 26.3958 20.1657 27.6498 23.4018 27.6789C23.4059 27.6789 23.4141 27.6789 23.4182 27.6789C23.4428 27.6789 23.4673 27.6789 23.4959 27.6747C26.0161 27.6083 28.0454 25.5073 28.0454 22.9329C28.0454 20.3211 25.9589 18.1952 23.3896 18.1868H23.3609C23.2955 18.1868 23.2341 18.191 23.1727 18.1952C21.8145 18.3031 20.7426 19.4616 20.7426 20.865C20.7426 22.3433 21.929 23.5433 23.3814 23.5433C24.4165 23.5433 25.3615 22.9246 25.787 21.9695L25.7952 21.9737C25.8607 22.3183 25.8934 22.6754 25.8934 23.0408C25.8934 23.5972 25.8157 24.1329 25.6643 24.6394C24.9892 25.063 24.1996 25.2997 23.3773 25.2997C20.9676 25.2997 19.0079 23.3107 19.0079 20.8692C19.0079 19.4782 19.642 18.2367 20.6321 17.427C21.3767 16.8125 22.3259 16.4429 23.3568 16.4388H23.3773C26.8998 16.4512 29.7637 19.3619 29.7637 22.9412C29.7637 26.4789 26.9653 29.3647 23.4959 29.4394C23.4755 29.4394 23.4591 29.4394 23.4387 29.4394H23.4141C23.3978 29.4394 23.3773 29.4394 23.3609 29.4394C15.4321 29.3564 9.00073 22.7834 9.00073 14.7156C9.00073 14.6284 9.00073 14.5412 9.00482 14.454C9.13983 6.4609 15.5917 0 23.5 0C28.3277 0 32.8239 2.3045 35.471 6.07474C37.8275 5.49343 40.3886 6.48581 41.7224 8.69481C42.5201 10.0194 42.7615 11.5848 42.4015 13.0962Z" fill="#FF008B"/>
<path d="M38.8134 10.1772C38.8134 10.8124 38.3061 11.3273 37.6801 11.3273C37.0542 11.3273 36.5469 10.8124 36.5469 10.1772C36.5469 9.54186 37.0542 9.02698 37.6801 9.02698C38.302 9.02698 38.8134 9.54186 38.8134 10.1772Z" fill="#FF008B"/>
</g>
<defs>
<clipPath id="clip0_80_136">
<rect width="47" height="30" fill="white"/>
</clipPath>
</defs>
</svg>
