<svg width="155" height="24" viewBox="0 0 155 24" fill="none" xmlns="http://www.w3.org/2000/svg">
<g clip-path="url(#clip0_80_50)">
<path d="M3.2664 14.8207C3.2664 18.0592 5.90598 20.7058 9.15148 20.7058H18.303V23.9721H9.15148C4.10215 23.9721 0 19.87 0 14.8207C0 9.77134 4.10215 5.66919 9.15148 5.66919H18.303V8.93559H9.15148C5.90598 8.93559 3.2664 11.5821 3.2664 14.8207Z" fill="white"/>
<path d="M38.8277 23.9721H35.1643L33.4928 20.7058L29.4952 12.8567L25.4905 20.7058L23.819 23.9721H20.1626L21.8341 20.7058L29.4952 5.66919L37.1562 20.7058L38.8277 23.9721Z" fill="white"/>
<path d="M58.9624 5.66919V23.9721H55.696V12.3134L52.4783 14.765L49.8109 16.8334L47.1435 14.765L43.9258 12.3134V23.9721H40.6594V5.66919L43.9258 8.17644L49.8109 12.7034L55.696 8.17644L58.9624 5.66919Z" fill="white"/>
<path d="M79.487 23.9721H75.8237L74.1521 20.7058L70.1545 12.8567L66.1498 20.7058L64.4783 23.9721H60.8149L62.4934 20.7058L70.1545 5.66919L77.8155 20.7058L79.487 23.9721Z" fill="white"/>
<path d="M95.7213 20.7336V24H86.4375C85.5251 24 84.6615 23.791 83.8745 23.401C82.7254 22.823 81.7851 21.8827 81.2349 20.7336C80.838 19.9466 80.636 19.083 80.636 18.1706V5.69702H83.9024V18.484C84.0556 19.6332 84.9749 20.5525 86.1241 20.7057L95.7213 20.7336Z" fill="white"/>
<path d="M101.871 10.6141V12.3134H113.634V15.5798H101.871V19.0273C101.871 19.9396 102.63 20.6988 103.543 20.6988H116.901V23.9652H103.543C100.82 23.9652 98.6257 21.7435 98.6257 19.0203V10.6141C98.6257 7.89786 100.82 5.66919 103.543 5.66919H116.901V8.93559H103.543C102.623 8.93559 101.871 9.69473 101.871 10.6141Z" fill="white"/>
<path d="M137.425 23.9721H133.769L132.097 20.7058L128.093 12.8567L124.095 20.7058L122.424 23.9721H118.76L120.432 20.7058L128.093 5.66919L135.754 20.7058L137.425 23.9721Z" fill="white"/>
<path d="M154.607 14.8207C154.607 19.87 150.498 23.9721 145.456 23.9721C140.406 23.9721 136.304 19.87 136.304 14.8207C136.304 9.77134 140.406 5.66919 145.456 5.66919C150.498 5.66919 154.607 9.77134 154.607 14.8207ZM151.341 14.8207C151.341 11.5821 148.701 8.93559 145.456 8.93559C142.21 8.93559 139.571 11.5752 139.571 14.8207C139.571 18.0592 142.21 20.7058 145.456 20.7058C148.701 20.7058 151.341 18.0592 151.341 14.8207Z" fill="white"/>
<path d="M122.967 3.94893V1.42078C123.789 0.522345 124.757 0.0766106 125.85 0.0766106C126.261 0.0766106 126.637 0.118398 126.978 0.195009C127.327 0.278584 127.94 0.494486 128.838 0.856645C129.729 1.2188 130.335 1.39988 130.656 1.39988C131.018 1.39988 131.443 1.28845 131.916 1.06558C132.397 0.842716 132.863 0.487522 133.316 0V2.63262C133.017 2.94602 132.599 3.23854 132.063 3.51016C131.526 3.78178 130.976 3.92107 130.398 3.92107C130.071 3.92107 129.757 3.87928 129.451 3.80267C129.144 3.72606 128.65 3.53802 127.981 3.2455C126.978 2.8137 126.198 2.59083 125.62 2.59083C124.715 2.59083 123.83 3.04353 122.967 3.94893Z" fill="#FF008B"/>
</g>
<defs>
<clipPath id="clip0_80_50">
<rect width="154.607" height="24" fill="white"/>
</clipPath>
</defs>
</svg>
