<svg width="193" height="32" viewBox="0 0 193 32" fill="none" xmlns="http://www.w3.org/2000/svg">
<g clip-path="url(#clip0_2407_54)">
<path d="M58.2176 24.7722L59.6303 24.8379V26.842H53.6837V24.9365L54.5051 24.8707C54.965 24.805 55.2279 24.6736 55.2279 24.0822V11.7619C55.2279 11.302 54.965 11.2034 54.6036 11.1705L53.7166 11.1377V9.06787H58.1847V24.7722H58.2176Z" fill="white"/>
<path d="M71.425 24.0821C71.425 24.6406 71.5893 24.7721 72.0492 24.8049L72.8377 24.8378V26.8419H68.8624V25.3963L68.7967 25.3634C68.041 26.4805 66.7597 27.1704 65.3798 27.1704C61.8644 27.1704 60.386 24.6735 60.386 21.1252C60.386 16.7228 62.4887 13.9302 66.9568 13.9302C67.7782 13.9302 69.618 14.1273 71.3921 14.8172V24.0821H71.425ZM68.5338 16.3942C68.1724 16.23 67.3839 16.0657 66.5954 16.0657C64.2299 16.0657 63.4414 18.2998 63.4414 20.9938C63.4414 23.0636 63.9342 25.0349 66.0369 25.0349C67.5811 25.0349 68.5338 23.9507 68.5338 22.8665V16.3942Z" fill="white"/>
<path d="M74.152 14.2915H78.3573V15.9013C79.2444 14.6529 80.7557 13.8972 82.3984 13.8972C84.8953 13.8972 86.3738 15.2771 86.3738 18.234V24.7391L87.7865 24.8048V26.8089H81.8399V24.9034L82.6612 24.8377C83.1212 24.772 83.384 24.6405 83.384 24.0163V18.8911C83.384 17.2483 83.0226 16.197 81.3471 16.197C79.7044 16.197 78.7844 17.4126 78.7844 18.7268V24.772L80.1972 24.8377V26.8418H74.2506V24.9362L75.0719 24.8705C75.5319 24.8048 75.7947 24.6734 75.7947 24.0492V17.1498C75.7947 16.5913 75.6304 16.3941 75.1705 16.3613L74.1191 16.2956V14.2915H74.152Z" fill="white"/>
<path d="M99.5153 24.0821C99.5153 24.6406 99.6796 24.7721 100.14 24.8049L100.928 24.8378V26.8419H96.9527V25.3963L96.887 25.3634C96.1314 26.4805 94.85 27.1704 93.4702 27.1704C89.9548 27.1704 88.4763 24.6735 88.4763 21.1252C88.4763 16.7228 90.579 13.9302 95.08 13.9302C95.9014 13.9302 97.7084 14.1273 99.5153 14.8172V24.0821ZM96.6242 16.3942C96.2628 16.23 95.4743 16.0657 94.7186 16.0657C92.3531 16.0657 91.5646 18.2998 91.5646 20.9938C91.5646 23.0636 92.0574 25.0349 94.1601 25.0349C95.7043 25.0349 96.657 23.9507 96.657 22.8665V16.3942H96.6242Z" fill="white"/>
<path d="M102.637 17.1171C102.637 16.5585 102.472 16.3614 102.012 16.3614L100.961 16.2957V14.2588H105.166V15.8686C105.626 15.0144 106.973 13.8645 109.109 13.8645C111.869 13.8645 113.61 15.7372 113.61 20.2054C113.61 24.805 111.441 27.1705 108.156 27.1705C107.17 27.1705 106.152 26.8419 105.495 26.4477V29.8974L107.532 29.9959V31.9672H101.092V30.0616L101.914 29.9959C102.374 29.9302 102.637 29.7988 102.637 29.1746V17.1171ZM108.025 16.3286C106.612 16.3286 105.495 17.3142 105.495 18.4641V24.2136C106.152 24.6407 107.039 24.8378 107.696 24.8378C109.832 24.8378 110.554 22.6694 110.554 20.5011C110.554 17.1828 109.339 16.3286 108.025 16.3286Z" fill="white"/>
<path d="M120.641 13.9302C122.481 13.9302 126.193 14.4887 126.193 20.2382C126.193 25.0349 123.532 27.2361 120.246 27.2361C116.895 27.2361 114.694 25.1006 114.694 20.5667C114.727 15.3758 118.078 13.9302 120.641 13.9302ZM123.17 20.6324C123.17 17.8398 122.513 16.1314 120.509 16.1314C118.538 16.1314 117.75 17.8398 117.75 20.2053C117.75 22.538 118.078 25.0349 120.476 25.0349C122.415 25.002 123.17 23.2279 123.17 20.6324Z" fill="white"/>
<path d="M130.891 24.7722L132.304 24.8379V26.842H126.357V24.9365L127.179 24.8707C127.639 24.805 127.901 24.6736 127.901 24.0822V11.7619C127.901 11.302 127.639 11.2034 127.277 11.1705L126.39 11.1377V9.06787H130.858V24.7722H130.891Z" fill="white"/>
<path d="M143.244 17.3799C143.244 21.2238 139.072 21.8809 136.148 21.8809C136.246 23.4907 137.101 24.8378 139.203 24.8378C140.682 24.8378 141.733 24.1807 142.357 23.7536L143.31 25.7577C142.916 26.1191 141.273 27.1704 138.908 27.1704C134.669 27.1704 133.027 24.5749 133.027 20.8624C133.027 17.1827 135.097 13.9302 139.203 13.9302C141.635 13.9302 143.244 15.1458 143.244 17.3799ZM139.006 16.0328C137.002 16.0328 136.115 17.9384 136.049 19.8111C137.889 19.7782 140.517 19.3511 140.517 17.4456C140.485 16.5257 139.893 16.0328 139.006 16.0328Z" fill="white"/>
<path d="M148.665 11.6304V14.2587H151.984L151.721 16.3614H148.665V22.9322C148.665 24.4435 149.257 24.9035 150.275 24.9035C150.965 24.9035 151.589 24.6406 151.984 24.3778L152.739 26.2833C151.984 26.809 150.735 27.1704 149.585 27.1704C145.708 27.1704 145.708 24.7721 145.708 23.0308V16.3942H143.934L144.197 14.5872C145.938 14.423 146.53 13.076 147.055 11.6632H148.665V11.6304Z" fill="white"/>
<path d="M163.844 24.0821C163.844 24.6406 164.008 24.7721 164.468 24.8049L165.257 24.8378V26.8419H161.314V25.3963L161.248 25.3634C160.46 26.4805 159.211 27.1704 157.832 27.1704C154.316 27.1704 152.838 24.6735 152.838 21.1252C152.838 16.7228 154.94 13.9302 159.409 13.9302C160.23 13.9302 162.07 14.1273 163.844 14.8172V24.0821ZM160.953 16.3942C160.591 16.23 159.803 16.0657 159.047 16.0657C156.682 16.0657 155.893 18.2998 155.893 20.9938C155.893 23.0636 156.386 25.0349 158.489 25.0349C160.033 25.0349 160.986 23.9507 160.986 22.8665V16.3942H160.953Z" fill="white"/>
<path d="M166.177 14.2915H170.382V15.9013C171.269 14.6529 172.78 13.8972 174.423 13.8972C176.92 13.8972 178.398 15.2771 178.398 18.234V24.7391L179.811 24.8048V26.8089H173.864V24.9034L174.686 24.8377C175.146 24.772 175.409 24.6405 175.409 24.0163V18.8911C175.409 17.2483 175.047 16.197 173.372 16.197C171.729 16.197 170.809 17.4126 170.809 18.7268V24.772L172.222 24.8377V26.8418H166.275V24.9362L167.097 24.8705C167.556 24.8048 167.819 24.6734 167.819 24.0492V17.1498C167.819 16.5913 167.655 16.3941 167.195 16.3613L166.144 16.2956V14.2915H166.177Z" fill="white"/>
<path d="M191.31 24.0821C191.31 24.6406 191.441 24.7721 191.934 24.8049L192.723 24.8378V26.8419H188.747V25.3963L188.682 25.3634C187.926 26.4805 186.645 27.1704 185.265 27.1704C181.75 27.1704 180.271 24.6735 180.271 21.1252C180.271 16.7228 182.374 13.9302 186.842 13.9302C187.663 13.9302 189.47 14.1273 191.277 14.8172V24.0821H191.31ZM188.419 16.3942C188.058 16.23 187.269 16.0657 186.513 16.0657C184.148 16.0657 183.359 18.2998 183.359 20.9938C183.359 23.0636 183.852 25.0349 185.955 25.0349C187.499 25.0349 188.452 23.9507 188.452 22.8665V16.3942H188.419Z" fill="white"/>
<path d="M32.9856 2.92397C32.3942 2.79255 31.8028 3.15395 31.6714 3.74533C31.6386 3.87674 31.6386 3.97531 31.6386 4.10672C31.1786 4.36956 30.7844 4.10672 30.7515 4.10672C30.4558 3.9096 30.5215 3.5482 30.5544 3.41678C31.0143 3.38393 31.4414 3.05539 31.54 2.56258C31.6714 1.9712 31.31 1.37982 30.7187 1.24841C30.1273 1.11699 29.5359 1.47839 29.4045 2.06976V2.10262C29.3388 2.3326 29.3388 2.52972 29.4045 2.69399C29.0759 3.05539 28.616 2.82541 28.5503 2.79256C28.1889 2.62828 28.2546 2.29974 28.2874 2.16833C28.6488 2.06976 28.9445 1.77407 29.0431 1.34697C29.1745 0.755594 28.8131 0.164218 28.2217 0.0328016C27.6304 -0.0986153 27.039 0.262781 26.9076 0.854157C26.809 1.24841 26.9733 1.64266 27.2361 1.87264C27.2033 2.00405 27.1375 2.3326 26.7104 2.36545C26.6447 2.36545 26.1519 2.3983 25.9876 1.90549C26.1191 1.77407 26.1848 1.57695 26.2176 1.37982V1.34697C26.349 0.755594 25.9877 0.164218 25.3963 0.0328016C24.8049 -0.0986153 24.2135 0.262781 24.0821 0.854157C23.9835 1.34697 24.2135 1.80693 24.6078 2.03691C24.5749 2.16832 24.4764 2.52972 24.115 2.59543C24.115 2.59543 23.655 2.69399 23.3265 2.23403C23.3922 2.13547 23.425 2.03691 23.4579 1.90549C23.5893 1.31412 23.2279 0.72274 22.6365 0.591323C22.0451 0.459906 21.4538 0.821303 21.3224 1.41268C21.1909 2.00405 21.5523 2.59543 22.1437 2.72685C22.1766 2.72685 22.2094 2.72685 22.2423 2.7597C22.308 2.98968 22.4394 3.84389 21.848 5.91371C21.8152 5.97941 21.848 6.04512 21.8809 6.07798C21.9137 6.11083 21.9466 6.14368 21.9794 6.14368C22.0123 6.14368 22.0123 6.14368 22.0451 6.14368C22.078 6.14368 24.1478 5.94656 26.6776 6.43937C29.1745 7.0636 30.9815 8.11494 31.0143 8.11494C31.0472 8.11494 31.0472 8.14779 31.0801 8.14779C31.1129 8.14779 31.1786 8.14779 31.2115 8.14779C31.2772 8.11494 31.31 8.04923 31.31 8.01637C31.6386 5.9137 32.1314 5.19091 32.2957 4.99379C32.3285 4.99379 32.3614 5.02664 32.3942 5.02664C32.9856 5.15806 33.577 4.79666 33.7084 4.20529C33.9384 3.61391 33.577 3.05539 32.9856 2.92397Z" fill="white"/>
<path d="M23.5236 7.22803C16.8213 7.22803 11.4004 12.649 11.4333 19.3512C11.4333 26.0535 16.8542 31.4744 23.5565 31.4744C30.2587 31.4744 35.6797 26.0535 35.6797 19.3512C35.6468 12.649 30.2259 7.22803 23.5236 7.22803ZM26.3491 15.2773C26.3491 15.2773 23.2936 15.2445 22.2423 13.4375C22.2423 13.4375 21.7823 16.033 19.6797 16.3615C19.6797 16.3615 19.0226 14.5545 20.3696 13.5032C20.2382 13.6017 18.5955 14.5874 17.0842 13.4046C16.9856 13.3389 17.5441 11.7948 20.3696 11.9919C20.3696 11.9919 19.9425 10.0535 21.3224 9.56068C21.3224 9.56068 22.768 10.5134 22.7351 11.6962C22.7351 11.6962 23.9836 10.1521 26.4476 10.8748C26.4476 10.8748 25.922 12.5504 23.7207 12.7147C23.7207 12.7475 25.922 13.5032 26.3491 15.2773Z" fill="white"/>
<path d="M2.69409 13.4045C3.02263 14.5544 3.84399 14.7843 4.43536 14.8172V14.8501L4.46822 14.8172C4.50107 14.8172 4.50107 14.8172 4.53393 14.8172V14.7843C4.96103 14.3572 5.38814 13.6344 4.86247 12.5831C4.86247 12.5831 4.59964 12.7802 4.3368 13.1416C4.17253 12.7802 3.87684 12.4188 3.28547 12.156C3.28547 12.156 3.15405 12.8131 3.31832 13.4702C2.95693 13.3716 2.69409 13.4045 2.69409 13.4045Z" fill="white"/>
<path d="M4.89529 16.0328C4.92814 16.0328 4.92814 16.0328 4.961 16.0328C4.99385 16.0328 4.99385 16.0328 5.0267 16.0328V16C5.61808 15.6057 6.57085 14.6858 5.91377 13.0759C5.91377 13.0759 5.58523 13.3059 5.25668 13.7002C5.19098 14.2587 4.86243 14.6858 4.56674 14.9486C4.17249 14.9486 3.64683 14.8501 3.21972 14.4887C2.69406 14.423 2.2998 14.4887 2.2998 14.4887C2.85833 16.0985 4.20535 16.1642 4.89529 16.0328Z" fill="white"/>
<path d="M5.42097 17.4455C5.45383 17.4455 5.45383 17.4455 5.48668 17.4455C5.51953 17.4455 5.51953 17.4455 5.55239 17.4455C6.24233 17.117 7.52364 16.197 6.96512 14.2915C6.96512 14.2915 6.63658 14.4886 6.24233 14.8172C6.07806 15.4743 5.58524 15.9342 5.22385 16.197C5.19099 16.2956 5.15814 16.3942 5.12528 16.5256C5.02672 16.4599 4.92816 16.3942 4.86245 16.3613C4.40249 16.427 3.74541 16.3942 3.15403 16.0328C2.66122 16.0328 2.26697 16.1313 2.26697 16.1313C3.12118 17.8398 4.69818 17.6426 5.42097 17.4455Z" fill="white"/>
<path d="M6.04522 18.8584C6.83372 18.6284 8.34501 17.8727 8.08218 15.7043C8.08218 15.7043 7.62222 15.8686 7.12941 16.23C6.86658 16.92 6.2752 17.3799 5.84809 17.6099C5.78239 17.7085 5.74953 17.8399 5.71668 17.9384C5.61812 17.8727 5.51955 17.8399 5.38814 17.7742C4.89532 17.9056 4.20538 17.9713 3.51545 17.6099C2.89122 17.7085 2.46411 17.8727 2.46411 17.8727C3.64686 19.6797 5.28957 19.2197 6.04522 18.8584Z" fill="white"/>
<path d="M14.2587 29.3388C14.2259 29.306 14.193 29.306 14.193 29.2731C14.0287 29.1417 13.8316 29.0103 13.6673 28.8789C13.6345 28.846 13.6016 28.8132 13.5359 28.7803C13.3717 28.6489 13.2402 28.5175 13.076 28.4189C13.0431 28.3861 12.9774 28.3532 12.9446 28.3204C12.8131 28.1889 12.6817 28.0904 12.5503 27.959C12.5174 27.9261 12.4517 27.8604 12.4189 27.8276C12.2875 27.729 12.1561 27.5976 12.0575 27.499C12.0246 27.4662 11.9589 27.4005 11.9261 27.3676C11.7947 27.269 11.6961 27.1376 11.5975 27.0391C11.5647 27.0062 11.499 26.9405 11.4661 26.9076C11.3676 26.8091 11.2361 26.6777 11.1376 26.5791C11.1047 26.5462 11.0719 26.5134 11.0062 26.4477C10.9076 26.3163 10.809 26.2177 10.7105 26.1191C10.6776 26.0863 10.6448 26.0534 10.6119 26.0206C10.5133 25.8892 10.4148 25.7906 10.3162 25.6592C10.2834 25.6263 10.2505 25.5935 10.2505 25.5606C10.1519 25.4292 10.0205 25.2978 9.92197 25.1664L9.88911 25.1335C9.52771 24.7064 9.23203 24.2793 8.96919 23.8522C8.93634 23.8193 8.93634 23.7865 8.90348 23.7865C8.83778 23.6879 8.77207 23.5894 8.70636 23.4908C8.67351 23.4579 8.6735 23.4251 8.64065 23.3922C8.57494 23.2937 8.54209 23.228 8.47638 23.1294C8.44353 23.0965 8.41067 23.0308 8.41067 22.998C8.37782 22.9323 8.31211 22.8337 8.27925 22.768C8.2464 22.7352 8.21355 22.6694 8.21355 22.6366C8.18069 22.5709 8.14784 22.5052 8.08213 22.4395C8.04927 22.4066 8.04927 22.3409 8.01642 22.308C7.98357 22.2423 7.95071 22.1766 7.91786 22.1109C7.885 22.0781 7.885 22.0124 7.85215 21.9795C7.81929 21.9138 7.78644 21.8481 7.75359 21.8152C7.72073 21.7824 7.72073 21.7495 7.68788 21.6838C7.65502 21.6181 7.62217 21.5853 7.62217 21.5195C7.55646 21.3881 7.55646 21.3553 7.52361 21.3224C7.49075 21.2567 7.49075 21.2239 7.4579 21.1582C7.4579 21.1253 7.42504 21.0924 7.42504 21.0596C7.39219 20.9939 7.39219 20.961 7.35934 20.9282C7.35934 20.8953 7.32648 20.8625 7.32648 20.8296C7.29363 20.7639 7.29363 20.731 7.29363 20.6982C7.29363 20.6653 7.26077 20.6653 7.26077 20.6325C7.22792 20.5668 7.22792 20.5011 7.19507 20.4682C8.11498 20.074 9.36344 19.154 9.06776 17.0842C9.06776 17.0842 8.6078 17.2485 8.04928 17.6428C7.72073 18.2998 7.19507 18.6941 6.70225 18.9241C6.53798 19.154 6.43942 19.4169 6.34086 19.7126C6.07802 19.5483 5.81519 19.4497 5.55235 19.384C5.02669 19.5483 4.3696 19.614 3.67967 19.3183C3.02258 19.4169 2.56262 19.614 2.56262 19.614C3.84394 21.4538 5.5195 21.1582 6.43942 20.7968C6.57084 21.0924 6.70225 21.3553 6.83367 21.6181C6.86652 21.651 6.86652 21.7167 6.89938 21.7495C7.03079 22.0124 7.16221 22.2752 7.29363 22.5052C7.32648 22.538 7.35934 22.6037 7.35934 22.6366C7.49075 22.8994 7.62217 23.1294 7.78644 23.3594C7.8193 23.3922 7.81929 23.4251 7.85215 23.4579C7.98357 23.6879 8.14784 23.9179 8.27925 24.1479C8.27925 24.1479 8.27925 24.1807 8.31211 24.1807C8.47638 24.4107 8.6078 24.6407 8.77207 24.8707C8.80492 24.9035 8.83778 24.9364 8.83778 24.9692C9.00205 25.1664 9.13346 25.3963 9.29773 25.5935C9.33059 25.6263 9.36344 25.6592 9.3963 25.7249C9.56057 25.922 9.72484 26.1191 9.88911 26.3163C9.92196 26.3491 9.92196 26.382 9.95482 26.382C10.1191 26.5791 10.2834 26.7434 10.4476 26.9405C10.4476 26.9733 10.4805 26.9733 10.5133 27.0062C10.6776 27.2033 10.8419 27.3676 11.0062 27.5319C11.039 27.5647 11.0719 27.5976 11.1047 27.6304C11.269 27.7947 11.4333 27.959 11.5975 28.1232C11.6304 28.1561 11.6632 28.189 11.6961 28.2218C11.8604 28.3861 12.0246 28.5503 12.2218 28.7146C12.2546 28.7475 12.2546 28.7475 12.2875 28.7803C12.4517 28.9117 12.616 29.076 12.7803 29.2074C12.8131 29.2403 12.846 29.2403 12.846 29.2731C13.0103 29.4046 13.2074 29.5688 13.3717 29.7002C13.4045 29.7331 13.4374 29.766 13.4702 29.7988C13.6345 29.9302 13.7988 30.0616 13.9959 30.1931C14.0287 30.2259 14.0616 30.2588 14.0944 30.2588C14.2587 30.3902 14.4558 30.5216 14.6201 30.6202C14.653 30.6202 14.653 30.653 14.6858 30.653C14.8501 30.7516 15.0144 30.883 15.1786 30.9816C15.2115 31.0144 15.2443 31.0144 15.2772 31.0473C17.2156 32.1972 17.0513 31.2115 17.0513 31.2115C16 30.6202 15.0801 29.9959 14.2587 29.3388Z" fill="white"/>
<path d="M0.0328542 23.4908C0.689938 24.2135 1.37988 24.0821 1.83984 23.885L1.87269 23.9179V23.885C1.87269 23.885 1.90554 23.885 1.90554 23.8521L1.87269 23.8193C2.03696 23.3265 2.06982 22.6365 1.31417 22.0452C1.31417 22.0452 1.21561 22.308 1.1499 22.6365C0.887064 22.4394 0.525667 22.2751 0 22.308C0 22.308 0.164271 22.8337 0.525667 23.2608C0.229979 23.3593 0.0328542 23.4908 0.0328542 23.4908Z" fill="white"/>
<path d="M2.62839 24.6079C2.66124 24.6079 2.66124 24.6079 2.66124 24.575L2.6941 24.5422C2.98979 24.0165 3.35118 22.998 2.26699 22.0781C2.26699 22.0781 2.10272 22.3738 2.00416 22.8009C2.16843 23.228 2.10272 23.6551 1.97131 23.9508C1.67562 24.1151 1.28137 24.2137 0.821408 24.1151C0.427158 24.2794 0.13147 24.4436 0.13147 24.4436C1.1828 25.3964 2.16843 24.9364 2.62839 24.6079Z" fill="white"/>
<path d="M3.54824 25.4293L3.58109 25.3964L3.61395 25.3635C3.97535 24.8707 4.59958 23.7208 3.48253 22.5381C3.48253 22.5381 3.31826 22.8009 3.15399 23.1952C3.28541 23.7537 3.08828 24.2465 2.92401 24.6079C2.92401 24.7065 2.95686 24.7722 2.98972 24.8707C2.89116 24.8707 2.82545 24.8379 2.72689 24.8379C2.39834 25.035 1.93838 25.265 1.34701 25.1993C0.985612 25.3964 0.722778 25.5935 0.722778 25.5935C2.00409 26.5792 3.08828 25.8564 3.54824 25.4293Z" fill="white"/>
<path d="M4.53394 26.2176C5.02675 25.7576 5.84811 24.6405 4.86248 23.1621C4.86248 23.1621 4.59965 23.4578 4.33681 23.8849C4.40252 24.5091 4.13969 25.0348 3.90971 25.3633C3.90971 25.4619 3.90971 25.5605 3.94256 25.659C3.844 25.659 3.74544 25.659 3.64688 25.659C3.31833 25.9547 2.82552 26.2833 2.20129 26.2833C1.77419 26.5789 1.51135 26.8746 1.51135 26.8746C3.08835 27.7288 4.10684 26.7761 4.53394 26.2176Z" fill="white"/>
<path d="M14.423 30.8829C14.3902 30.8829 14.3573 30.8829 14.3573 30.8829C14.193 30.85 13.9959 30.8172 13.8316 30.7843C13.7988 30.7843 13.7659 30.7515 13.7002 30.7515C13.5359 30.7186 13.3717 30.6858 13.2403 30.6529C13.2074 30.6529 13.1417 30.6201 13.1088 30.6201C12.9774 30.5872 12.8132 30.5543 12.6817 30.5215C12.616 30.5215 12.5832 30.4886 12.5503 30.4886C12.4189 30.4558 12.2875 30.4229 12.1561 30.3572C12.1232 30.3572 12.0575 30.3244 12.0246 30.3244C11.8932 30.2915 11.7618 30.2587 11.6304 30.1929C11.5975 30.1929 11.5318 30.1601 11.499 30.1601C11.3676 30.1272 11.269 30.0615 11.1376 30.0287C11.1047 30.0287 11.039 29.9958 11.0062 29.9958C10.8748 29.963 10.7762 29.8973 10.6448 29.8644C10.6119 29.8644 10.5791 29.8316 10.5462 29.8316C10.4148 29.7987 10.3162 29.733 10.1848 29.6673C10.152 29.6673 10.1191 29.6344 10.0863 29.6344C9.95484 29.5687 9.82342 29.5359 9.692 29.4702C9.692 29.4702 9.65915 29.4702 9.65915 29.4373C9.23204 29.2402 8.87065 29.0431 8.50925 28.8459C8.4764 28.8459 8.4764 28.8131 8.44354 28.8131C8.34498 28.7474 8.27927 28.7145 8.18071 28.6488C8.14785 28.6159 8.115 28.6159 8.08215 28.5831C8.01644 28.5502 7.95073 28.4845 7.85217 28.4517C7.81931 28.4188 7.78646 28.4188 7.7536 28.386C7.68789 28.3531 7.62219 28.3203 7.55648 28.2545C7.52362 28.2217 7.49077 28.2217 7.45792 28.1888C7.39221 28.156 7.35935 28.1231 7.29364 28.0903C7.26079 28.0574 7.22794 28.0574 7.19508 28.0246C7.12937 27.9917 7.09652 27.9589 7.06366 27.926C7.03081 27.8932 6.99796 27.8932 6.9651 27.8603C6.93225 27.8274 6.86654 27.7946 6.83369 27.7617C6.80083 27.7289 6.76798 27.7289 6.73512 27.696C6.70227 27.6632 6.66941 27.6303 6.60371 27.5975C6.57085 27.5646 6.538 27.5646 6.538 27.5318C6.50514 27.4989 6.47229 27.466 6.43944 27.4332C6.40658 27.4003 6.40658 27.4003 6.37373 27.3675C6.34087 27.3346 6.30802 27.3018 6.27516 27.2689C6.24231 27.2361 6.24231 27.2361 6.20946 27.2032C6.1766 27.1704 6.14375 27.1375 6.11089 27.1047L6.07804 27.0718C6.04518 27.0389 6.01233 27.0061 5.97948 26.9732C6.50514 26.349 7.06367 25.1991 6.11089 23.7864C6.11089 23.7864 5.84806 24.0821 5.55237 24.5749C5.55237 25.1663 5.32239 25.6591 5.05956 26.0205C5.0267 26.2504 5.05956 26.4804 5.09241 26.7104C4.86243 26.6775 4.63245 26.7104 4.40247 26.7433C4.07393 27.0389 3.61397 27.3346 3.0226 27.4003C2.59549 27.7289 2.2998 28.0246 2.2998 28.0246C3.90966 28.9116 5.0267 28.0574 5.55237 27.466C5.7495 27.6303 5.94662 27.7946 6.14375 27.926C6.1766 27.9589 6.20946 27.9589 6.24231 27.9917C6.43943 28.1231 6.63656 28.2545 6.80083 28.386C6.83369 28.4188 6.86654 28.4517 6.89939 28.4517C7.09652 28.5831 7.29364 28.7145 7.45792 28.8459C7.49077 28.8788 7.52362 28.8788 7.55648 28.9116C7.7536 29.0431 7.95073 29.1416 8.14785 29.273C8.14785 29.273 8.18071 29.273 8.18071 29.3059C8.37783 29.4044 8.57496 29.5359 8.77208 29.6344C8.80494 29.6673 8.83779 29.6673 8.87065 29.7001C9.06777 29.7987 9.23204 29.8973 9.42917 29.9958C9.46202 30.0287 9.49488 30.0287 9.52773 30.0615C9.72486 30.1601 9.92198 30.2258 10.0863 30.3244C10.1191 30.3244 10.152 30.3572 10.152 30.3572C10.3491 30.4229 10.5134 30.5215 10.7105 30.5872C10.7433 30.5872 10.7433 30.5872 10.7762 30.6201C10.9733 30.6858 11.1704 30.7515 11.3347 30.8172C11.3676 30.8172 11.4004 30.85 11.4333 30.85C11.6304 30.9157 11.7947 30.9814 11.9918 31.0143C12.0247 31.0143 12.0575 31.0472 12.0904 31.0472C12.2875 31.1129 12.4518 31.1457 12.6489 31.2114C12.6817 31.2114 12.6817 31.2114 12.7146 31.2443C12.8789 31.2771 13.076 31.3428 13.2403 31.3757C13.2731 31.3757 13.306 31.3757 13.306 31.4086C13.4702 31.4414 13.6674 31.4743 13.8316 31.54C13.8645 31.54 13.8973 31.54 13.963 31.5728C14.1273 31.6057 14.3244 31.6385 14.4887 31.6714C14.5216 31.6714 14.5544 31.6714 14.5873 31.7042C14.7516 31.7371 14.9487 31.7699 15.1129 31.7699C15.1458 31.7699 15.1458 31.7699 15.1787 31.7699C15.3429 31.8028 15.5072 31.8028 15.6715 31.8357C15.7043 31.8357 15.7372 31.8357 15.77 31.8357C17.6099 31.9671 17.1499 31.31 17.1499 31.31C16.1643 31.1457 15.2444 31.0143 14.423 30.8829Z" fill="white"/>
<path d="M14.3245 30.423C14.3245 30.423 15.3101 31.1786 15.77 31.3101L17.1499 31.2115C17.1499 31.2115 17.3142 31.3429 15.6386 30.3901L14.3245 30.423Z" fill="white"/>
<path d="M44.6818 13.3718C44.3532 14.5216 43.5319 14.7516 42.9405 14.7845V14.8173L42.9077 14.7845C42.8748 14.7845 42.8748 14.7845 42.8419 14.7845V14.7516C42.4148 14.3245 41.9877 13.6017 42.5134 12.5504C42.5134 12.5504 42.7762 12.7475 43.0391 13.1089C43.2033 12.7475 43.499 12.3861 44.0904 12.1233C44.0904 12.1233 44.2218 12.7804 44.0576 13.4375C44.4189 13.3718 44.6818 13.3718 44.6818 13.3718Z" fill="white"/>
<path d="M42.4805 16.0328C42.4477 16.0328 42.4477 16.0328 42.4148 16.0328C42.382 16.0328 42.382 16.0328 42.3491 16.0328V16C41.7577 15.6057 40.805 14.6858 41.462 13.0759C41.462 13.0759 41.7906 13.3059 42.1191 13.7002C42.1848 14.2587 42.5134 14.6858 42.8091 14.9486C43.2033 14.9486 43.729 14.8501 44.1561 14.4887C44.6818 14.423 45.076 14.4887 45.076 14.4887C44.5175 16.0985 43.1705 16.1314 42.4805 16.0328Z" fill="white"/>
<path d="M41.9219 17.4128C41.8891 17.4128 41.8891 17.4128 41.8562 17.4128C41.8233 17.4128 41.8233 17.4128 41.7905 17.4128C41.1006 17.0843 39.8192 16.1643 40.3778 14.2588C40.3778 14.2588 40.7063 14.4559 41.1006 14.7845C41.2648 15.4415 41.7576 15.9015 42.119 16.1643C42.1519 16.2629 42.1847 16.3615 42.2176 16.4929C42.3162 16.4272 42.4147 16.3615 42.4804 16.3286C42.9404 16.3943 43.5975 16.3615 44.1888 15.9672C44.6817 15.9672 45.0759 16.0658 45.0759 16.0658C44.2546 17.8399 42.6776 17.6428 41.9219 17.4128Z" fill="white"/>
<path d="M41.3306 18.8582C40.5421 18.6282 39.0308 17.8726 39.2936 15.7371C39.2936 15.7371 39.7536 15.9013 40.2464 16.2627C40.5092 16.9527 41.1006 17.4126 41.5277 17.6426C41.5934 17.7412 41.6263 17.8726 41.6591 17.9711C41.7577 17.9054 41.8562 17.8726 41.9877 17.8069C42.4805 17.9383 43.1704 18.004 43.8603 17.6426C44.4846 17.7412 44.9117 17.9054 44.9117 17.9054C43.7289 19.6467 42.0862 19.1868 41.3306 18.8582Z" fill="white"/>
<path d="M33.1499 29.3388C33.1828 29.306 33.2156 29.306 33.2156 29.2731C33.3799 29.1417 33.577 29.0103 33.7413 28.8789C33.7741 28.846 33.807 28.8131 33.8398 28.7803C34.0041 28.6489 34.1355 28.5175 34.2998 28.4189C34.3327 28.386 34.3984 28.3532 34.4312 28.2875C34.5626 28.1561 34.6941 28.0575 34.8255 27.9261C34.8583 27.8932 34.924 27.8275 34.9569 27.7947C35.0883 27.6961 35.2197 27.5647 35.3183 27.4661C35.3511 27.4333 35.4168 27.3676 35.4497 27.3347C35.5811 27.2361 35.6797 27.1047 35.7782 27.0062C35.8111 26.9733 35.8768 26.9076 35.9097 26.8747C36.0082 26.7762 36.1396 26.6448 36.2382 26.5462C36.2711 26.5134 36.3039 26.4805 36.3368 26.4148C36.4353 26.2834 36.5339 26.1848 36.6653 26.0862C36.6982 26.0534 36.731 26.0205 36.7639 25.9877C36.8624 25.8563 36.961 25.7577 37.0596 25.6263C37.0924 25.5934 37.0924 25.5606 37.1253 25.5277C37.2238 25.3963 37.3552 25.2649 37.4538 25.1335L37.4867 25.1006C37.8481 24.6735 38.1437 24.2464 38.4066 23.8193C38.4394 23.7865 38.4394 23.7536 38.4723 23.7536C38.538 23.655 38.6037 23.5565 38.6694 23.4579C38.7023 23.4251 38.7023 23.3922 38.7351 23.3593C38.8008 23.2608 38.8337 23.1951 38.8994 23.0965C38.9322 23.0637 38.9651 22.998 38.9651 22.9651C38.998 22.8994 39.0637 22.8008 39.0965 22.7351C39.1294 22.7023 39.1294 22.6366 39.1622 22.6037C39.1951 22.538 39.2279 22.4723 39.2936 22.4066C39.3265 22.3737 39.3265 22.308 39.3594 22.2752C39.3922 22.2095 39.4251 22.1437 39.4579 22.078C39.4908 22.0452 39.4908 21.9795 39.5236 21.9466C39.5565 21.8809 39.5893 21.8152 39.6222 21.7823C39.655 21.7495 39.655 21.7166 39.6879 21.6509C39.7207 21.5852 39.7536 21.5524 39.7536 21.4867C39.7536 21.4538 39.7865 21.4209 39.7865 21.3881C39.8193 21.3224 39.8193 21.2895 39.8522 21.2238C39.8522 21.191 39.885 21.1581 39.885 21.1253C39.9179 21.0596 39.9179 21.0267 39.9507 20.9938C39.9507 20.961 39.9836 20.9281 39.9836 20.8953C40.0164 20.8296 40.0164 20.7967 40.0164 20.7639C40.0164 20.731 40.0493 20.731 40.0493 20.6982C40.0821 20.6324 40.0821 20.5667 40.115 20.5339C39.1951 20.1396 37.9466 19.2197 38.2423 17.1499C38.2423 17.1499 38.7023 17.3142 39.2608 17.7084C39.5893 18.3655 40.115 18.7598 40.6078 18.9897C40.7721 19.2197 40.8706 19.4826 40.9692 19.7782C41.232 19.614 41.4949 19.5154 41.7577 19.4497C42.2834 19.614 42.9405 19.6797 43.6304 19.384C44.2875 19.4826 44.7474 19.6797 44.7474 19.6797C43.4661 21.5195 41.7906 21.2238 40.9035 20.8624C40.7721 21.1581 40.6407 21.4209 40.5092 21.6838C40.4764 21.7166 40.4764 21.7823 40.4435 21.8152C40.3121 22.078 40.1807 22.3409 40.0493 22.5708C40.0164 22.6037 39.9836 22.6694 39.9836 22.7023C39.8522 22.9651 39.7207 23.1951 39.5565 23.4251C39.5236 23.4579 39.5236 23.4908 39.4908 23.5236C39.3593 23.7536 39.1951 23.9836 39.0637 24.2136C39.0637 24.2136 39.0637 24.2464 39.0308 24.2464C38.8665 24.4764 38.7351 24.7064 38.5708 24.9363C38.538 24.9692 38.5051 25.0021 38.5051 25.0349C38.3409 25.232 38.2095 25.462 38.0452 25.6591C38.0123 25.692 37.9795 25.7249 37.9466 25.7906C37.7823 25.9877 37.6181 26.1848 37.4538 26.3819C37.421 26.4148 37.421 26.4476 37.3881 26.4476C37.2238 26.6448 37.0596 26.809 36.8953 27.0062C36.8624 27.039 36.8624 27.039 36.8296 27.0719C36.6653 27.269 36.501 27.4333 36.3368 27.5975C36.3039 27.6304 36.2711 27.6632 36.2382 27.6961C36.0739 27.8604 35.9097 28.0246 35.7454 28.1889C35.7125 28.2218 35.6797 28.2546 35.6468 28.2875C35.4826 28.4517 35.3183 28.616 35.1212 28.7803C35.0883 28.8131 35.0883 28.8131 35.0554 28.846C34.8912 29.0103 34.7269 29.1417 34.5626 29.2731C34.5298 29.306 34.4969 29.306 34.4969 29.3388C34.3327 29.4702 34.1684 29.6345 33.9713 29.7659C33.9384 29.7988 33.9056 29.8316 33.8727 29.8645C33.7084 29.9959 33.5442 30.1273 33.347 30.2587C33.3142 30.2916 33.2813 30.3244 33.2485 30.3244C33.0842 30.4559 32.8871 30.5873 32.7228 30.6858C32.6899 30.6858 32.6899 30.7187 32.6571 30.7187C32.4928 30.8173 32.3285 30.9487 32.1643 31.0472C32.1314 31.0801 32.0986 31.0801 32.0657 31.1129C30.193 32.1971 30.3573 31.2115 30.3573 31.2115C31.3758 30.6201 32.2957 29.9959 33.1499 29.3388Z" fill="white"/>
<path d="M47.343 23.4579C46.6859 24.1807 45.9959 24.0493 45.536 23.8521L45.5031 23.885V23.8521C45.5031 23.8521 45.4703 23.8521 45.4703 23.8193L45.5031 23.7864C45.3388 23.3265 45.306 22.6365 46.0945 22.0452C46.0945 22.0452 46.1931 22.308 46.2588 22.6365C46.5216 22.4394 46.883 22.2751 47.4087 22.308C47.4087 22.308 47.2444 22.8337 46.883 23.2608C47.1458 23.3593 47.343 23.4579 47.343 23.4579Z" fill="white"/>
<path d="M44.7475 24.5749C44.7146 24.5749 44.7146 24.5749 44.7146 24.5421L44.6818 24.5092C44.3861 23.9836 44.0247 22.9651 45.1089 22.0452C45.1089 22.0452 45.2731 22.3409 45.3717 22.768C45.2074 23.1951 45.2731 23.6222 45.4046 23.9179C45.7002 24.0821 46.0945 24.1807 46.5544 24.0821C46.9487 24.2464 47.2444 24.4107 47.2444 24.4107C46.2259 25.3963 45.2074 24.9363 44.7475 24.5749Z" fill="white"/>
<path d="M43.8275 25.3963L43.7946 25.3634L43.7618 25.3306C43.4004 24.8378 42.7762 23.6879 43.8932 22.5051C43.8932 22.5051 44.0575 22.768 44.2217 23.1622C44.0903 23.7207 44.2874 24.2135 44.4517 24.5749C44.4517 24.6735 44.4189 24.7392 44.386 24.8378C44.4846 24.8378 44.5503 24.8049 44.6488 24.8049C44.9774 25.002 45.4702 25.232 46.0287 25.1663C46.3901 25.3634 46.6529 25.5606 46.6529 25.5606C45.3716 26.5462 44.2874 25.8234 43.8275 25.3963Z" fill="white"/>
<path d="M42.8748 26.2176C42.382 25.7576 41.5606 24.6405 42.5462 23.1621C42.5462 23.1621 42.8091 23.4578 43.0719 23.8849C43.0062 24.5091 43.269 25.0348 43.499 25.3633C43.499 25.4619 43.499 25.5605 43.4662 25.659C43.5647 25.659 43.6633 25.659 43.7618 25.659C44.0575 25.9219 44.5832 26.2504 45.1746 26.2504C45.6017 26.5461 45.8645 26.8418 45.8645 26.8418C44.3204 27.696 43.269 26.7432 42.8748 26.2176Z" fill="white"/>
<path d="M32.9857 30.8502C33.0185 30.8502 33.0514 30.8502 33.0514 30.8502C33.2485 30.8173 33.4128 30.7845 33.577 30.7516C33.6099 30.7516 33.6427 30.7188 33.7085 30.7188C33.8727 30.6859 34.037 30.653 34.1684 30.6202C34.2013 30.6202 34.267 30.5873 34.2998 30.5873C34.4313 30.5545 34.5955 30.5216 34.7269 30.4888L34.8584 30.4559C34.9898 30.4231 35.1212 30.3902 35.2526 30.3245C35.2855 30.3245 35.3512 30.2916 35.384 30.2916C35.5154 30.2588 35.6469 30.2259 35.7454 30.1602C35.7783 30.1602 35.844 30.1274 35.8768 30.1274C36.0083 30.0945 36.1068 30.0288 36.2382 29.996C36.2711 29.996 36.3368 29.9631 36.3696 29.9631C36.5011 29.9303 36.5996 29.8645 36.731 29.8317C36.7639 29.8317 36.7968 29.7988 36.8296 29.7988C36.961 29.766 37.0596 29.7003 37.191 29.6346C37.2239 29.6346 37.2567 29.6017 37.2896 29.6017C37.421 29.536 37.5524 29.5031 37.6838 29.4374C37.6838 29.4374 37.7167 29.4374 37.7167 29.4046C38.1438 29.2075 38.5052 29.0103 38.8666 28.8132C38.8994 28.8132 38.8994 28.7804 38.9323 28.7804C39.0308 28.7146 39.0965 28.6818 39.1951 28.6161C39.228 28.5832 39.2608 28.5832 39.2937 28.5504C39.3594 28.5175 39.4251 28.4518 39.5237 28.419C39.5565 28.3861 39.5894 28.3861 39.6222 28.3533C39.6879 28.3204 39.7536 28.2875 39.8193 28.2218C39.8522 28.189 39.885 28.189 39.9179 28.1561C39.9836 28.1233 40.0165 28.0904 40.0822 28.0576C40.115 28.0247 40.1479 28.0247 40.1807 27.9919C40.2136 27.959 40.2793 27.9261 40.3122 27.8933C40.345 27.8604 40.3779 27.8604 40.4107 27.8276C40.4436 27.7947 40.5093 27.7619 40.5421 27.729C40.575 27.6962 40.6078 27.6962 40.6407 27.6633C40.6735 27.6305 40.7064 27.5976 40.7721 27.5647C40.805 27.5319 40.8378 27.5319 40.8378 27.499C40.8707 27.4662 40.9035 27.4333 40.9364 27.4005C40.9692 27.3676 40.9692 27.3676 41.0021 27.3348C41.0349 27.3019 41.0678 27.2691 41.1007 27.2362C41.1335 27.2034 41.1335 27.2034 41.1664 27.1705C41.1992 27.1376 41.2321 27.1048 41.2649 27.0719L41.2978 27.0391C41.3306 27.0062 41.3635 26.9734 41.3963 26.9405C40.8707 26.3163 40.3122 25.1664 41.2649 23.7537C41.2649 23.7537 41.5278 24.0493 41.8234 24.5422C41.8234 25.1335 42.0534 25.6264 42.3163 25.9877C42.3491 26.2177 42.3163 26.4477 42.2834 26.6777C42.5134 26.6448 42.7434 26.6777 42.9733 26.7105C43.3019 27.0062 43.7618 27.3019 44.3532 27.3676C44.7803 27.6962 45.076 27.9919 45.076 27.9919C43.4662 28.8789 42.3491 28.0247 41.8234 27.4333C41.6263 27.5976 41.4292 27.7619 41.2321 27.8933C41.1992 27.9261 41.1664 27.9261 41.1335 27.959C40.9364 28.0904 40.7393 28.2218 40.575 28.3533C40.5421 28.3861 40.5093 28.419 40.4764 28.419C40.2793 28.5504 40.0822 28.6818 39.9179 28.8132C39.885 28.8461 39.8522 28.8461 39.8193 28.8789C39.6222 29.0103 39.4251 29.1089 39.228 29.2403C39.228 29.2403 39.1951 29.2403 39.1951 29.2732C38.998 29.3717 38.8009 29.5031 38.6037 29.6017C38.5709 29.6346 38.538 29.6346 38.5052 29.6674C38.308 29.766 38.1438 29.8645 37.9467 29.9631C37.9138 29.996 37.8809 29.996 37.8481 30.0288C37.651 30.1274 37.4538 30.1931 37.2896 30.2916C37.2567 30.2916 37.2239 30.3245 37.2239 30.3245C37.0267 30.3902 36.8625 30.4888 36.6653 30.5545C36.6325 30.5545 36.6325 30.5545 36.5996 30.5873C36.4025 30.653 36.2054 30.7188 36.0411 30.7845C36.0083 30.7845 35.9754 30.8173 35.9425 30.8173C35.7454 30.883 35.5811 30.9487 35.384 30.9816C35.3512 30.9816 35.3183 31.0144 35.2855 31.0144C35.0883 31.0802 34.9241 31.113 34.7269 31.1787C34.6941 31.1787 34.6941 31.1787 34.6612 31.2116C34.497 31.2444 34.2998 31.3101 34.1356 31.343C34.1027 31.343 34.0699 31.343 34.0699 31.3758C33.9056 31.4087 33.7085 31.4415 33.5442 31.5073C33.5113 31.5073 33.4785 31.5073 33.4128 31.5401C33.2485 31.573 33.0514 31.6058 32.8871 31.6387C32.8542 31.6387 32.8214 31.6387 32.7885 31.6715C32.6243 31.7044 32.4271 31.7372 32.2629 31.7372C32.23 31.7372 32.23 31.7372 32.1972 31.7372C32.0329 31.7701 31.8686 31.7701 31.7044 31.8029C31.6715 31.8029 31.6386 31.8029 31.6058 31.8029C29.766 31.8687 30.2259 31.2116 30.2259 31.2116C31.2115 31.1459 32.1315 31.0144 32.9857 30.8502Z" fill="white"/>
<path d="M33.0513 30.423C33.0513 30.423 32.0657 31.1786 31.6057 31.3101L30.2259 31.2115C30.2259 31.2115 30.0616 31.3429 31.7371 30.3901L33.0513 30.423Z" fill="white"/>
</g>
<defs>
<clipPath id="clip0_2407_54">
<rect width="192.723" height="32" fill="white"/>
</clipPath>
</defs>
</svg>
